<svg width="127" height="48" viewBox="0 0 127 48" fill="none" xmlns="http://www.w3.org/2000/svg">
<path d="M124.981 16.8543C124.108 16.0008 123.004 15.5304 121.873 15.5304C120.957 15.5304 120.088 15.8173 119.365 16.3333C119.269 15.6227 118.973 14.9761 118.53 14.4539C119.074 13.8135 119.402 12.9847 119.402 12.0794V8.9512C119.402 6.92646 117.757 5.27983 115.733 5.27983H105.199C104.93 5.27983 104.663 5.31062 104.401 5.36973C104.14 5.31062 103.872 5.27983 103.604 5.27983H100.847C99.5385 5.27983 98.3214 5.9843 97.6679 7.11859L95.2175 11.3713L92.7549 7.11243C92.1014 5.98183 90.8842 5.27983 89.5796 5.27983H86.8241C84.8156 5.27983 83.1787 6.90306 83.1553 8.90809L82.716 7.69744C82.1917 6.25155 80.8059 5.27983 79.2688 5.27983H77.4522C75.9138 5.27983 74.5281 6.25155 74.005 7.69621L73.4967 9.09406L73.4697 9.06943C70.5664 6.42028 67.358 5.07662 63.9353 5.07662C61.4272 5.07662 59.1516 5.69364 57.1369 6.91661C54.9955 3.26741 50.2942 0.21799 40.5506 0.21799C40.1359 0.21799 39.7138 0.222917 39.283 0.234001C38.2849 0.078821 37.2511 0 36.2087 0C35.8666 0 35.5257 0.00861888 35.186 0.0246296C29.2687 0.321443 22.8801 3.32283 22.4063 9.21599C22.2488 9.51157 22.1171 9.81577 22.01 10.1249L14.9433 30.6432C14.675 31.4203 13.9427 31.9438 13.1218 31.9438H6.47599C2.90447 31.9438 0 34.8515 0 38.4244C0 41.9972 2.9057 44.905 6.47599 44.905H11.581C11.581 44.905 19.9966 47.2266 20.0261 47.234C20.9934 47.7364 22.0642 48 23.1496 48H61.3952C65.4356 48 68.724 44.7104 68.724 40.6659C68.724 38.7951 68.0152 37.0352 66.7881 35.7026C67.2878 34.7653 67.5573 33.7099 67.5573 32.6187C67.5573 32.147 67.5019 31.6876 67.4072 31.2442C67.7825 31.1395 68.153 31.0188 68.5185 30.8797C69.1203 31.2898 69.8391 31.5176 70.5849 31.5176H73.9201C75.4597 31.5176 76.8467 30.5447 77.3698 29.0963L78.3654 26.3437L78.8245 27.6049C78.1833 28.3303 77.8362 29.2084 77.8362 30.1567C77.8362 31.1814 78.2227 32.163 78.9032 32.8933C78.9278 32.9278 78.9537 32.9623 78.9795 32.9955C79.1518 33.7714 79.6097 34.7161 80.7173 35.5363C80.8108 35.6053 80.9585 35.7149 81.1542 35.8356C80.8687 36.1509 80.6348 36.5167 80.4675 36.912L79.729 37.9933C79.5334 38.2729 79.3611 38.5894 79.1605 39.0476C78.7482 39.6326 78.5771 40.209 78.4885 40.5058C78.4048 40.7878 78.3359 41.0157 78.2891 41.2497C78.1476 41.6536 78.075 42.0711 78.075 42.496C78.075 43.1845 78.139 43.7461 78.2756 44.2634C78.5771 45.394 79.3303 46.3361 80.5142 47.064C81.0717 47.4064 81.5493 47.6687 82.0625 47.8288C82.4181 47.9409 82.7874 47.9975 83.1603 47.9975C83.2883 47.9975 83.4163 47.9914 83.5332 47.9791L83.9935 47.9323C84.5411 47.8756 85.0777 47.6933 85.5392 47.4076L85.6365 47.3485C85.9823 47.1465 86.301 46.8903 86.6481 46.5356C86.9004 46.3447 87.1281 46.1243 87.3274 45.878C87.6696 45.5824 87.9502 45.2449 88.1668 44.873C88.4437 44.5306 88.6603 44.1636 88.8166 43.7769C88.8843 43.6845 88.9458 43.5983 89 43.517C89.2609 43.2103 89.4677 42.8655 89.6178 42.4862L89.8221 42.2128C89.8738 42.145 89.9205 42.0773 89.9415 42.044C90.051 41.8815 90.1507 41.7115 90.2381 41.5378C90.4473 41.2275 90.6073 40.8986 90.718 40.5538C90.9223 40.2767 91.1685 39.869 91.3248 39.3444C91.3962 39.2335 91.4602 39.1227 91.518 39.0119C92.0497 39.2483 92.6035 39.3678 93.1733 39.3678C94.7868 39.3678 96.4458 38.3135 96.9688 36.492C97.0476 36.4415 97.1288 36.3898 97.2113 36.3356C97.2494 36.3097 97.2876 36.2839 97.3257 36.2568C97.3836 36.2235 97.4377 36.1915 97.4882 36.1607C97.6851 36.2457 97.8894 36.3147 98.0998 36.3639C98.6241 36.5635 99.1779 36.6644 99.7502 36.6644C100.323 36.6644 100.842 36.5425 101.372 36.3024C101.647 36.2211 101.906 36.1188 102.15 35.9969C102.487 36.3467 102.893 36.6558 103.367 36.9231C104.04 37.3036 104.623 37.6312 105.597 37.6312C105.693 37.6312 105.788 37.6275 105.842 37.6226L105.959 37.6152C106.075 37.6263 106.191 37.6312 106.306 37.6312C106.84 37.6312 107.372 37.513 107.853 37.2889C108.245 37.1879 108.611 37.0241 108.947 36.8024C109.71 37.3061 110.627 37.5721 111.613 37.5721C112.715 37.5721 113.738 37.2519 114.585 36.6423C114.729 36.561 114.866 36.4698 114.997 36.3689C115.24 36.2334 115.466 36.0696 115.676 35.8799C116.376 36.2161 117.135 36.391 117.92 36.391C118.153 36.391 118.387 36.3689 118.619 36.3233L118.747 36.2987C119.272 36.2506 119.762 36.1188 120.211 35.9058C120.681 35.7703 121.12 35.54 121.507 35.2284C121.752 35.0905 121.981 34.9254 122.189 34.7358C122.58 34.4747 122.921 34.1458 123.228 33.7308C123.563 33.4943 123.86 33.2074 124.107 32.8822C125.003 32.0989 125.509 30.9683 125.509 29.7207C125.509 29.5606 125.499 29.4042 125.478 29.2466C125.483 29.1727 125.484 29.0988 125.484 29.0249C125.484 27.9362 124.99 26.824 124.094 26.0888C124.218 25.8819 124.323 25.6626 124.406 25.436C124.651 25.1441 124.848 24.819 124.993 24.4631L125.653 22.8497C125.69 22.7586 125.723 22.665 125.754 22.5701C125.946 22.1612 126.078 21.745 126.149 21.3287C126.26 20.9789 126.363 20.5405 126.363 20.0281C126.363 18.8569 125.871 17.73 124.976 16.8531L124.981 16.8543ZM64.8092 15.7545C64.2578 16.3974 63.9243 17.2324 63.9243 18.1426V21.2289C63.1071 21.2265 62.5323 20.9863 61.9453 20.4001C61.3582 19.8151 61.1195 19.235 61.1195 18.3987C61.1195 17.5625 61.3582 16.9935 61.9453 16.4097C62.5348 15.821 63.112 15.5808 63.9366 15.5808C64.2172 15.5808 64.5089 15.6387 64.8104 15.7533L64.8092 15.7545ZM36.3945 9.11623C36.8979 9.15687 37.3803 9.24185 37.8345 9.3724C38.4547 9.54852 39.4221 9.92416 39.9857 10.6422H35.1663C35.5355 9.98081 36.0204 9.46107 36.3945 9.11623Z" fill="#EFEEEE"/>
<path d="M45.0255 8.21966C44.9344 8.2566 44.8446 8.28986 44.7584 8.33543C44.6551 8.38469 44.5529 8.43888 44.4581 8.50046C44.1086 8.69875 43.7948 8.94137 43.5154 9.22094C42.6588 7.60633 41.0368 6.38582 38.8584 5.76387C37.3717 5.34389 35.7989 5.23674 34.2925 5.41409H34.2888C32.0821 5.67765 30.0318 6.53854 28.6521 7.89082C27.9149 7.79969 27.1704 7.90314 26.4701 8.19133C27.6479 5.4141 31.6329 3.95589 35.3755 3.76992C39.7064 3.55193 44.2563 5.01875 45.0267 8.21966H45.0255Z" fill="#FFB133"/>
<path d="M54.9611 12.2445V14.3246C54.2817 13.8677 53.5322 13.5167 52.7335 13.2987C52.3335 13.1829 51.9188 13.1004 51.4979 13.0561C51.5926 12.1866 51.4437 11.3097 51.0536 10.5055C50.5022 9.3724 49.5423 8.52383 48.3522 8.11617C47.7922 7.92281 47.2113 7.8403 46.6353 7.86123C46.2735 6.26632 45.2889 5.03104 43.9388 4.11597C47.7848 4.47805 50.6376 5.49658 52.4861 7.16046H52.4898C53.9273 8.46225 54.7543 10.1557 54.9598 12.2445H54.9611Z" fill="#9D4EDD"/>
<path d="M63.8124 32.6198C63.8124 32.6654 63.8124 32.7061 63.8038 32.7516C63.7373 34.2431 62.5029 35.434 60.9953 35.434H43.9204L45.86 29.8057H60.9953C62.5472 29.8057 63.8111 31.0668 63.8111 32.6198H63.8124Z" fill="#44C13D"/>
<path d="M59.1812 28.1568H54.6313L53.4252 23.5839C52.9021 21.5937 51.2961 20.1145 49.3405 19.6982L51.0733 14.6721C51.5385 14.7004 51.9914 14.7879 52.4283 14.9197C54.3187 15.4961 55.862 16.9875 56.4429 18.9408L59.1812 28.158V28.1568Z" fill="#9D4EDD"/>
<path d="M52.9303 28.1566H46.4285L48.8 21.272C49.4708 21.3754 50.0923 21.6587 50.603 22.0873C51.1876 22.5651 51.6282 23.229 51.83 24.0036L52.9291 28.1566H52.9303Z" fill="#FFB133"/>
<path d="M30.8122 12.7434H29.1409C28.7914 12.7434 28.4775 12.9663 28.3631 13.3L21.8415 32.2407C19.4121 38.0464 12.3589 36.9466 12.0586 36.8961C12.018 36.8875 11.9725 36.8838 11.927 36.8838C11.5196 36.8838 10.5473 37.1017 10.2717 39.1253C10.1978 39.6893 10.1769 40.464 10.3209 41.1561H6.47984C4.97345 41.1561 3.75012 39.9282 3.75012 38.4245C3.75012 38.358 3.75381 38.2927 3.75874 38.2262C3.85719 36.8086 5.03867 35.6928 6.47984 35.6928H13.1257C13.2783 35.6928 13.426 35.6891 13.5749 35.6768C15.8061 35.4995 17.7494 34.0117 18.4866 31.865L25.5558 11.3455C25.6051 11.1977 25.6666 11.0573 25.7417 10.9255C26.0087 10.4317 26.4247 10.0314 26.9404 9.78015C27.5951 9.4624 28.336 9.41806 29.0277 9.65206C29.7156 9.89099 30.2707 10.3812 30.5882 11.0401C30.8516 11.5758 30.9254 12.1645 30.8147 12.7421L30.8122 12.7434Z" fill="#FF4747"/>
<path d="M64.9777 40.666C64.9777 42.6143 63.4172 44.2056 61.4825 44.2511H36.9557C39.8085 42.7227 42.0976 40.2177 43.3295 37.082H61.3963C63.2203 37.082 64.7279 38.454 64.9494 40.2177C64.9703 40.3655 64.9777 40.5145 64.9777 40.6672V40.666Z" fill="#44C13D"/>
<path d="M30.4454 8.52137C30.8651 8.78246 31.2355 9.11006 31.5445 9.49678C31.9149 8.66423 32.3949 7.95483 32.8785 7.37476C31.9691 7.63585 31.1359 8.02257 30.4454 8.52137Z" fill="#9414EF"/>
<path d="M49.7157 13.5636L41.9918 35.9896C40.2872 40.9295 35.6352 44.2511 30.4133 44.2511H23.1509C21.9238 44.2511 20.8617 43.5257 20.3756 42.4752C20.1947 42.0884 20.0913 41.6512 20.0913 41.1894V41.1561C20.1073 39.4836 21.4746 38.1276 23.1509 38.1276H30.4133C33.0273 38.1276 35.3546 36.4675 36.2025 33.9944L43.4736 12.8825L43.5769 12.582L43.9265 11.5684C44.1935 10.7937 44.7461 10.1718 45.4784 9.81338C46.2156 9.45499 47.0426 9.40572 47.8167 9.67298C48.5908 9.93654 49.2124 10.4883 49.5705 11.226C49.9286 11.9588 49.9779 12.7914 49.7145 13.5623L49.7157 13.5636Z" fill="#FF4747"/>
<path d="M41.2127 14.3911L34.6457 33.4598C34.0242 35.2641 32.3233 36.4797 30.4133 36.4797H23.1508C21.4377 36.4797 19.935 37.4021 19.1153 38.7741C18.6871 39.4786 18.4446 40.3075 18.4446 41.1881C18.4446 41.8346 18.5763 42.4492 18.8114 43.0096L12.0265 41.1388C11.7717 40.6732 11.8246 39.103 12.0966 38.5635C12.8621 38.6547 14.9088 38.8062 17.1191 38.2175C19.4747 37.5906 22.01 36.1287 23.3736 32.849C23.3773 32.8329 23.3859 32.8157 23.3896 32.7997L28.7456 17.2459L29.7302 14.3911H41.214H41.2127Z" fill="#FFB133"/>
<path d="M63.8492 36.05C64.8313 35.231 65.459 33.9981 65.459 32.6212C65.459 30.1605 63.4578 28.1579 60.9989 28.1579H60.9004L58.0206 18.4715C57.7264 17.4837 57.2378 16.5884 56.6065 15.8211V12.2051C56.6065 12.1793 56.6065 12.1534 56.6028 12.1275C55.9591 5.31685 50.0862 2.02481 39.1452 2.3401C37.8825 2.1295 36.5693 2.06053 35.2931 2.12457C30.113 2.38444 24.544 4.90797 24.48 9.83433C24.2831 10.1361 24.117 10.4612 23.9964 10.811L16.9296 31.3293C16.3697 32.9537 14.8399 34.0462 13.1231 34.0462H6.47723C4.06381 34.0462 2.10083 36.0106 2.10083 38.4257C2.10083 40.8408 4.06381 42.8052 6.47723 42.8052H11.8653L20.5098 45.1908C20.5824 45.2105 20.6538 45.2204 20.7252 45.2204C21.434 45.649 22.2623 45.9015 23.1497 45.9015H61.3964C64.28 45.9015 66.6245 43.554 66.6245 40.6697C66.6245 38.6708 65.4984 36.933 63.848 36.0512L63.8492 36.05ZM60.2851 29.8058C60.2851 29.8058 60.2851 29.8058 60.2863 29.8058H60.9989C62.5496 29.8058 63.8123 31.0682 63.8123 32.6212C63.8123 34.1742 62.5508 35.4366 60.9989 35.4366H43.9228L45.8624 29.807H53.9974C53.9974 29.807 53.9974 29.807 53.9986 29.807H60.2826C60.2826 29.807 60.2826 29.807 60.2838 29.807L60.2851 29.8058ZM46.4298 28.1579L48.8013 21.2733C50.2462 21.4975 51.451 22.5567 51.8338 24.005L52.9304 28.1579H46.431H46.4298ZM56.4416 18.9407L59.1811 28.1579H54.6324L53.4251 23.5838C52.8996 21.5936 51.2947 20.1144 49.3416 19.7006L51.0732 14.6745C53.5506 14.8309 55.7265 16.5391 56.4416 18.9419V18.9407ZM54.9598 12.2433V14.3272C53.9395 13.6375 52.7556 13.1916 51.499 13.0574C51.5913 12.1879 51.4437 11.3098 51.0523 10.5043C50.5009 9.37371 49.5434 8.52514 48.3546 8.11502C47.7934 7.92166 47.2113 7.84038 46.6353 7.86255C46.2722 6.26764 45.2889 5.02866 43.9388 4.11728C50.7877 4.76017 54.4909 7.48199 54.9586 12.2433H54.9598ZM35.3755 3.76997C39.7064 3.55321 44.2563 5.01758 45.0255 8.21971C44.9369 8.25666 44.8471 8.29114 44.7597 8.33425C44.292 8.56209 43.876 8.86383 43.5154 9.21976C42.6601 7.60884 41.038 6.38587 38.8609 5.76638C35.1958 4.72323 30.9708 5.61982 28.6522 7.89088C27.915 7.8022 27.1692 7.90442 26.4713 8.19262C27.6479 5.41415 31.6317 3.95841 35.3755 3.77121V3.76997ZM32.4821 12.7199C32.4981 12.6584 32.5104 12.5943 32.5117 12.5266C32.583 9.45007 35.0174 7.46967 35.6795 6.98689C36.6001 6.98442 37.528 7.09896 38.4092 7.35021C39.6818 7.7123 41.8527 8.65693 42.4152 10.9231C42.4016 10.96 42.3844 10.9957 42.3709 11.0327L41.7814 12.7433H32.4797C32.4797 12.7347 32.4797 12.7273 32.4821 12.7187V12.7199ZM31.5456 9.49687C31.2366 9.11138 30.8662 8.78255 30.4465 8.52145C31.1357 8.02266 31.9689 7.63594 32.8796 7.37484C32.396 7.95492 31.916 8.66431 31.5456 9.49687ZM10.322 41.1574H6.47846C4.97331 41.1574 3.74875 39.9319 3.74875 38.4257C3.74875 36.9195 4.97331 35.694 6.47846 35.694H13.1243C15.5439 35.694 17.7001 34.1558 18.4877 31.8662L25.5545 11.3479C25.792 10.6583 26.283 10.1028 26.939 9.7826C27.5937 9.46239 28.3346 9.41805 29.0251 9.65575C29.7143 9.89344 30.2693 10.3861 30.5893 11.0413C30.8502 11.577 30.9253 12.1694 30.8145 12.7446H29.142C28.79 12.7446 28.4774 12.9675 28.3629 13.3L21.8414 32.2406C19.412 38.0451 12.36 36.9466 12.061 36.8973C12.0167 36.8899 11.9711 36.8862 11.9256 36.8862C11.5194 36.8862 10.5484 37.1042 10.274 39.1252C10.1977 39.6905 10.1767 40.4664 10.322 41.1561V41.1574ZM18.8114 43.0121L12.024 41.1401C11.7693 40.6758 11.8222 39.1068 12.0967 38.5661C13.6769 38.7533 20.7338 39.2078 23.3724 32.8503C23.3786 32.8343 23.3847 32.8183 23.3909 32.8023L29.729 14.3924H41.2152L34.6482 33.4587C34.0254 35.2654 32.3246 36.4798 30.4145 36.4798H23.1509C20.5553 36.4798 18.4447 38.5932 18.4447 41.1894C18.4447 41.8347 18.5751 42.4505 18.8114 43.0109V43.0121ZM23.1509 44.2524C21.4636 44.2524 20.0913 42.8791 20.0913 41.1906C20.0913 39.5021 21.4636 38.1289 23.1509 38.1289H30.4145C33.0261 38.1289 35.3534 36.4687 36.205 33.9969L43.929 11.5709C44.1948 10.7974 44.7461 10.1742 45.4809 9.81585C46.2156 9.45746 47.0463 9.40696 47.8192 9.67422C48.5921 9.94024 49.2148 10.492 49.573 11.2273C49.9311 11.9625 49.9816 12.7938 49.7157 13.566L41.9918 35.9921C40.2897 40.9332 35.6377 44.2524 30.4158 44.2524H23.1521H23.1509ZM61.3976 44.2524H36.9558C39.811 42.7252 42.1001 40.2164 43.3321 37.0845H61.3989C63.3742 37.0845 64.9802 38.693 64.9802 40.6684C64.9802 42.6439 63.3742 44.2524 61.3989 44.2524H61.3976Z" fill="#20003D"/>
<path d="M19.1153 38.7754C18.6871 39.4799 18.4446 40.3088 18.4446 41.1893C18.4446 41.8359 18.5763 42.4505 18.8114 43.0109L12.0265 41.1401C11.7717 40.6745 11.8246 39.1043 12.0966 38.5648C12.8621 38.656 14.9088 38.8075 17.1191 38.2188L19.1166 38.7754H19.1153Z" fill="#FF9022"/>
<path d="M41.2127 14.3911L34.6456 33.4598C34.0241 35.2641 32.3233 36.4797 30.4132 36.4797H29.6723L36.4388 19.7374C36.92 18.5465 36.0437 17.2459 34.7601 17.2459H28.7456L29.7302 14.3911H41.2139H41.2127Z" fill="#FF9022"/>
<path d="M49.7157 13.5636L41.9918 35.9896C40.2872 40.9295 35.6352 44.2511 30.4133 44.2511H23.1509C21.9238 44.2511 20.8617 43.5257 20.3756 42.4752C20.1947 42.0884 20.0913 41.6512 20.0913 41.1894V41.1561H31.9369C31.9369 41.1561 34.9214 41.4862 37.4418 39.5822C39.966 37.6744 46.6562 16.7645 47.2986 14.9343C47.941 13.1054 46.9651 12.3874 45.4464 12.1817C44.7387 12.0869 44.0261 12.4576 43.4748 12.8825L43.5782 12.582L43.9277 11.5684C44.1948 10.7937 44.7473 10.1718 45.4796 9.81338C46.2168 9.45499 47.0438 9.40572 47.818 9.67298C48.5921 9.93654 49.2136 10.4883 49.5717 11.226C49.9299 11.9588 49.9791 12.7914 49.7157 13.5623V13.5636Z" fill="#E52E2E"/>
<path d="M30.8122 12.7434H29.1409C28.7914 12.7434 28.4775 12.9663 28.3631 13.3L21.8415 32.2407C19.4121 38.0464 12.3589 36.9466 12.0586 36.8961C12.018 36.8875 11.9725 36.8838 11.927 36.8838C11.5196 36.8838 10.5473 37.1018 10.2717 39.1253C10.1978 39.6893 10.1769 40.464 10.3209 41.1562H6.47984C4.97345 41.1562 3.75012 39.9283 3.75012 38.4245C3.75012 38.358 3.75381 38.2927 3.75874 38.2262C4.84176 39.7546 8.43543 38.9097 8.43543 38.9097C8.43543 38.3617 8.43543 37.2619 9.36216 36.7138C9.90121 36.3924 11.6427 36.4466 13.6315 36.2397C15.0566 36.0919 16.6086 35.8111 17.9377 35.1682C21.129 33.6225 28.0492 12.1029 27.5594 11.2494C27.2259 10.6644 26.2869 10.7876 25.7392 10.9243C26.0063 10.4304 26.4222 10.0302 26.9379 9.77893C27.5927 9.46118 28.3335 9.41684 29.0252 9.65084C29.7132 9.88977 30.2682 10.3799 30.5857 11.0388C30.8491 11.5746 30.9229 12.1633 30.8122 12.7409V12.7434Z" fill="#E52E2E"/>
<path d="M44.4569 8.49933C44.1074 8.69762 43.7936 8.94024 43.5142 9.21981C42.6576 7.60519 41.0355 6.38469 38.8572 5.76274C37.3705 5.34276 35.7976 5.23561 34.2913 5.41296C34.6162 5.33414 40.9777 3.87964 44.4569 8.49933Z" fill="#FF9022"/>
<path d="M60.9964 35.434H43.9215L45.8611 29.8057H48.7188L47.5829 33.4524C47.5829 33.4524 61.1293 34.4869 63.8048 32.7516C63.7384 34.2431 62.504 35.434 60.9964 35.434Z" fill="#2C9B34"/>
<path d="M64.9777 40.666C64.9777 42.6143 63.4172 44.2056 61.4825 44.2511H36.9557C39.8085 42.7227 42.0976 40.2177 43.3295 37.082H46.7546L45.0095 41.416C45.0095 41.416 61.7336 42.1451 64.9494 40.2164C64.9703 40.3642 64.9777 40.5132 64.9777 40.666Z" fill="#2C9B34"/>
<path d="M48.3522 8.11617C47.7922 7.92281 47.2113 7.8403 46.6353 7.86123C46.2735 6.26632 45.2889 5.03104 43.9388 4.11597C47.7848 4.47805 50.6376 5.49658 52.4861 7.16046C51.5594 6.8969 49.9127 6.5422 48.9208 6.9868C48.9208 6.9868 52.2523 8.26766 52.7335 13.2987C52.3335 13.1829 51.9188 13.1004 51.4979 13.0561C51.5926 12.1866 51.4437 11.3097 51.0536 10.5055C50.5022 9.3724 49.5423 8.52383 48.3522 8.11617Z" fill="#7014C1"/>
<path d="M57.1961 28.1568H54.6313L53.4252 23.5839C52.9021 21.5937 51.2961 20.1145 49.3405 19.6982L51.0733 14.6721C51.5385 14.7004 51.9914 14.7879 52.4283 14.9197L51.4942 18.6194C51.4942 18.6194 53.6553 19.3731 54.4787 20.6096C55.1617 21.6318 56.6902 26.5102 57.1961 28.158V28.1568Z" fill="#7014C1"/>
<path d="M50.6044 22.0887L48.6156 28.158H46.4298L48.8014 21.2734C49.4721 21.3769 50.0936 21.6602 50.6044 22.0887Z" fill="#FF9022"/>
<path d="M57.3732 31.3786C57.3732 31.6989 56.1314 31.9575 54.5992 31.9575C53.067 31.9575 51.8252 31.6976 51.8252 31.3786C51.8252 31.0597 53.067 30.7998 54.5992 30.7998C56.1314 30.7998 57.3732 31.0597 57.3732 31.3786Z" fill="#F6F7EF"/>
<path d="M51.0165 31.3267C51.0165 31.6186 50.7802 31.855 50.4885 31.855C50.1969 31.855 49.9606 31.6186 49.9606 31.3267C49.9606 31.0348 50.1969 30.7983 50.4885 30.7983C50.7802 30.7983 51.0165 31.0348 51.0165 31.3267Z" fill="#F6F7EF"/>
<path d="M41.5672 23.3707C41.87 23.4754 41.7088 24.7341 41.2066 26.1824C40.7045 27.6308 40.0547 28.7207 39.7519 28.6161C39.4492 28.5114 39.6116 27.2527 40.1125 25.8043C40.6134 24.356 41.2645 23.266 41.5672 23.3707Z" fill="#F6F7EF"/>
<path d="M39.4392 29.3647C39.7149 29.4595 39.8601 29.7613 39.7653 30.0359C39.6706 30.3118 39.3691 30.4571 39.0946 30.3623C38.8189 30.2674 38.6737 29.9657 38.7685 29.6911C38.8632 29.4152 39.1648 29.2699 39.4392 29.3647Z" fill="#F6F7EF"/>
<path d="M5.36829 37.6682C5.64397 37.763 5.78919 38.0647 5.69442 38.3394C5.59966 38.6152 5.29814 38.7606 5.02369 38.6657C4.74801 38.5709 4.60279 38.2692 4.69755 37.9945C4.79231 37.7186 5.09384 37.5733 5.36829 37.6682Z" fill="#F6F7EF"/>
<path d="M53.3637 10.3578C53.584 10.4342 53.6996 10.6744 53.6246 10.8948C53.5483 11.1153 53.3083 11.231 53.088 11.1559C52.8677 11.0796 52.752 10.8394 52.8271 10.6189C52.9034 10.3985 53.1434 10.2827 53.3637 10.3578Z" fill="#F6F7EF"/>
<path d="M25.1397 15.9048C25.3834 15.9898 25.2542 17.0071 24.848 18.1784C24.4431 19.3496 23.9164 20.2302 23.6727 20.1452C23.429 20.0602 23.5582 19.0429 23.9644 17.8717C24.3693 16.7004 24.896 15.8199 25.1397 15.9048Z" fill="#F6F7EF"/>
<path d="M23.4192 20.7499C23.642 20.8275 23.7601 21.0701 23.6826 21.293C23.605 21.5159 23.3626 21.6342 23.1398 21.5566C22.9171 21.479 22.7989 21.2364 22.8765 21.0135C22.954 20.7905 23.1964 20.6723 23.4192 20.7499Z" fill="#F6F7EF"/>
<path d="M61.5933 38.6411C61.5933 38.9613 60.3515 39.22 58.8193 39.22C57.2871 39.22 56.0453 38.9601 56.0453 38.6411C56.0453 38.3221 57.2871 38.0623 58.8193 38.0623C60.3515 38.0623 61.5933 38.3221 61.5933 38.6411Z" fill="#F6F7EF"/>
<path d="M55.2367 38.5896C55.2367 38.8815 55.0004 39.118 54.7088 39.118C54.4171 39.118 54.1808 38.8815 54.1808 38.5896C54.1808 38.2977 54.4171 38.0613 54.7088 38.0613C55.0004 38.0613 55.2367 38.2977 55.2367 38.5896Z" fill="#F6F7EF"/>
<path d="M53.2663 17.1548C53.3118 17.2472 53.3869 17.3211 53.4595 17.3937C54.102 18.0317 54.7136 18.7349 55.0336 19.5823C55.1444 19.8766 55.2207 20.1882 55.3856 20.4555C55.4225 20.5158 55.473 20.5786 55.5431 20.5897C55.6293 20.6033 55.7056 20.5306 55.7523 20.4567C55.884 20.2461 55.8963 19.9838 55.8828 19.7362C55.8311 18.8335 55.4607 17.9517 54.8527 17.2817C54.5573 16.9565 54.1807 16.6683 53.7438 16.6215C53.6429 16.6104 53.5358 16.6141 53.4435 16.6572C53.2639 16.7422 53.1789 16.9799 53.2663 17.156V17.1548Z" fill="#F6F7EF"/>
<path d="M51.35 7.08163C51.1986 6.96586 51.0325 6.85502 50.843 6.83655C50.6534 6.81808 50.4393 6.92399 50.3987 7.10996C50.3753 7.21711 50.4122 7.33041 50.4762 7.41909C50.5402 7.50776 50.6276 7.57673 50.7162 7.64078C50.9586 7.81566 51.2196 7.96838 51.446 8.1642C51.8448 8.50905 52.1254 8.97212 52.5069 9.33544C52.5881 9.41303 52.6915 9.49185 52.8022 9.46969C52.8921 9.45244 52.9585 9.3687 52.9782 9.28002C53.057 8.93641 52.7382 8.66915 52.5733 8.41298C52.3641 8.08661 52.118 7.78364 51.8423 7.51146C51.6872 7.35874 51.5223 7.21465 51.35 7.08287V7.08163Z" fill="#F6F7EF"/>
<path d="M12.9703 39.2865C13.7358 39.3776 15.7825 39.5291 17.9928 38.9404C18.426 38.8246 18.8654 38.6818 19.3023 38.5032C19.9878 37.5191 21.0388 36.8122 22.2597 36.5757C23.0424 35.7998 23.7292 34.8182 24.2473 33.5719C24.251 33.5559 24.2596 33.5386 24.2633 33.5226L29.6193 17.9689L30.6039 15.114H40.964L41.2126 14.3936H29.7289L28.7443 17.2484L23.3883 32.8021C23.3846 32.8181 23.3759 32.8354 23.3723 32.8514C22.0099 36.1311 19.4734 37.5943 17.1178 38.2199C14.9062 38.8086 12.8608 38.6571 12.0953 38.566C11.8233 39.1054 11.7704 40.6757 12.0251 41.1412L12.766 41.3457C12.6848 40.6819 12.766 39.6929 12.9703 39.2877V39.2865Z" fill="#F6F7EF"/>
<path d="M35.9921 4.02737C38.0314 3.92515 40.1137 4.1998 41.8318 4.85008C40.0104 4.01629 37.6646 3.65543 35.3743 3.76997C31.6317 3.95594 27.6467 5.41414 26.4689 8.19138C26.7532 8.07438 27.0461 7.99556 27.3414 7.94014C28.7641 5.49297 32.4846 4.20102 35.9921 4.02737Z" fill="#F6F7EF"/>
<path d="M115.735 13.6497C116.601 13.6497 117.304 12.9465 117.304 12.0795V8.95122C117.304 8.08418 116.601 7.38095 115.735 7.38095H105.2C104.907 7.38095 104.637 7.46593 104.402 7.6051C104.169 7.46593 103.898 7.38095 103.605 7.38095H100.848C100.287 7.38095 99.7688 7.68022 99.4894 8.1667L95.2238 15.5723L90.9409 8.16424C90.6603 7.67899 90.1434 7.38095 89.5834 7.38095H86.8266C85.9602 7.38095 85.2575 8.08418 85.2575 8.95122V20.8311L80.7445 8.41425C80.5193 7.79353 79.9298 7.38095 79.2701 7.38095H77.4536C76.7939 7.38095 76.2044 7.79353 75.9792 8.41425L72.2883 18.5699V18.1426C72.2883 17.2755 71.5855 16.5723 70.7191 16.5723H67.5931C66.7267 16.5723 66.024 17.2755 66.024 18.1426V22.9236C65.4357 23.1946 64.7354 23.3313 63.9355 23.3313C62.5509 23.3313 61.4482 22.8731 60.4612 21.8891C59.4766 20.9063 59.0188 19.7978 59.0188 18.4C59.0188 17.0021 59.4778 15.9048 60.4612 14.922C61.447 13.9379 62.5509 13.4798 63.9355 13.4798C65.1822 13.4798 66.4424 14.0365 67.678 15.1363L67.9414 15.3703C68.2393 15.6338 68.6109 15.7656 68.9826 15.7656C69.3543 15.7656 69.7395 15.6289 70.0385 15.3567L72.3707 13.2335C72.6969 12.9354 72.8839 12.5142 72.8839 12.0733C72.8839 11.6312 72.6981 11.21 72.372 10.9119L72.0532 10.6213C69.5487 8.33666 66.8165 7.17773 63.933 7.17773C60.8476 7.17773 58.1807 8.28617 56.006 10.4722C53.8326 12.6558 52.7311 15.3235 52.7311 18.4C52.7311 21.4765 53.8338 24.154 56.0085 26.3302C58.1831 28.5064 60.8501 29.6099 63.933 29.6099C65.7791 29.6099 67.5021 29.1727 69.086 28.3094C69.134 28.4633 69.2029 28.6123 69.2977 28.7478C69.5918 29.1665 70.0705 29.4166 70.5825 29.4166H73.9177C74.5786 29.4166 75.1681 29.0027 75.3921 28.3808L77.3366 23.0086H79.3846L81.3389 28.3833C81.5641 29.004 82.1536 29.4166 82.8133 29.4166H86.1362C86.2544 29.4166 86.3688 29.4018 86.482 29.3759C86.5928 29.4006 86.706 29.4166 86.8242 29.4166H89.9502C90.8166 29.4166 91.5193 28.7133 91.5193 27.8463V21.6649L93.8688 25.7193C94.1494 26.2033 94.6663 26.5014 95.2262 26.5014H95.2275C95.7874 26.5014 96.3043 26.2021 96.5849 25.7169L98.9085 21.6896V27.8463C98.9085 28.7133 99.6113 29.4166 100.478 29.4166H103.604C103.897 29.4166 104.166 29.3316 104.401 29.1924C104.635 29.3316 104.906 29.4166 105.199 29.4166H115.734C116.6 29.4166 117.303 28.7133 117.303 27.8463V24.707C117.303 23.8399 116.6 23.1367 115.734 23.1367H109.894V21.5258H115.734C116.6 21.5258 117.303 20.8225 117.303 19.9555V16.8272C117.303 15.9602 116.6 15.257 115.734 15.257H109.894V13.6473H115.734L115.735 13.6497Z" fill="#20003D"/>
<path d="M63.9353 11.9095C65.5783 11.9095 67.188 12.5992 68.7203 13.9614L68.9836 14.1954L71.3158 12.0721L70.9971 11.7815C68.7904 9.76782 66.4139 8.74683 63.934 8.74683C61.2806 8.74683 58.9878 9.70008 57.1184 11.5795C55.2489 13.4589 54.3 15.7521 54.3 18.3988C54.3 21.0455 55.2477 23.3473 57.1184 25.2194C58.9891 27.0914 61.2806 28.0397 63.934 28.0397C66.425 28.0397 68.6673 27.1049 70.5959 25.2588L70.7165 25.143V18.1414H67.5905V23.8092C66.6182 24.5334 65.3887 24.8991 63.9328 24.8991C62.1311 24.8991 60.6333 24.2772 59.3509 22.9988C58.0697 21.7204 57.447 20.2154 57.447 18.3988C57.447 16.5822 58.0697 15.0871 59.3509 13.8087C60.632 12.5303 62.1311 11.9083 63.9328 11.9083L63.9353 11.9095Z" fill="#FFB133"/>
<path d="M77.4534 8.95117L70.5848 27.8475H73.9201L76.2387 21.4407H80.4847L82.8144 27.8475H86.1373L79.2687 8.95117H77.4522H77.4534ZM79.3499 18.3125H77.382L78.3629 15.6079L79.3499 18.3125Z" fill="#FFB133"/>
<path d="M95.2263 18.7128L89.5822 8.95117H86.8254V27.8475H89.9514V15.8284L95.2275 24.9335L100.479 15.8333V27.8475H103.605V8.95117H100.848L95.2263 18.7128Z" fill="#FFB133"/>
<path d="M115.735 12.0794V8.95117H105.2V27.8475H115.735V24.7081H108.325V19.9579H115.735V16.8297H108.325V12.0794H115.735Z" fill="#FFB133"/>
<path d="M123.513 18.3568C122.9 17.7582 122.283 17.6313 121.873 17.6313C121.188 17.6313 120.569 17.9282 120.149 18.4504L119.995 18.6117C119.792 18.794 119.587 19.0489 119.309 19.459C119.071 19.8088 118.904 20.0687 118.795 20.2522C118.793 20.2559 118.733 20.3569 118.523 20.5946C118.314 20.831 118.103 21.1032 117.966 21.4222C117.756 21.6229 117.556 21.9087 117.417 22.3151C117.417 22.3188 117.415 22.3225 117.413 22.3262C117.367 22.3951 117.319 22.4715 117.272 22.5565C117.232 22.6267 117.197 22.6858 117.173 22.7252C117.108 22.8299 117.053 22.9383 117.007 23.0516C116.996 23.0664 116.832 23.3114 116.832 23.3114C116.738 23.4518 116.668 23.607 116.622 23.7708C116.574 23.9432 116.487 24.1243 116.359 24.3066C116.313 24.3731 116.272 24.442 116.238 24.5135C116.148 24.697 116.077 24.8522 116.02 24.9913C115.836 24.9433 115.647 24.9187 115.459 24.9187C115.271 24.9187 115.075 24.9507 114.892 25.0135C114.69 25.0147 114.489 25.0504 114.297 25.1206C114.152 25.1391 114.009 25.1773 113.875 25.234C113.748 25.2881 113.636 25.3423 113.534 25.399C113.274 25.4852 113.021 25.6244 112.775 25.8177C112.585 25.8953 112.413 25.9988 112.26 26.1281C112.217 26.1626 112.148 26.2118 112.055 26.2771C111.816 26.4446 111.603 26.6454 111.42 26.8781C111.156 27.0887 110.925 27.3178 110.728 27.5641C110.551 27.7021 110.404 27.8782 110.299 28.0814C109.937 28.1356 109.601 28.2932 109.314 28.5383C109.283 28.3252 109.213 28.0728 109.079 27.675C108.968 27.3474 108.877 27.1084 108.79 26.9225C108.578 25.5246 107.517 24.8953 106.501 24.8953C105.682 24.8953 104.94 25.2044 104.353 25.7906C104.343 25.8005 104.332 25.8116 104.322 25.8227C104.176 25.9286 104.05 26.0505 103.946 26.1872C103.906 26.2242 103.797 26.3165 103.554 26.4594C103.441 26.5259 103.338 26.6072 103.245 26.6983C103.158 26.755 103.077 26.8215 103.003 26.8941C102.845 26.984 102.695 27.09 102.553 27.2119C102.231 26.2907 101.399 25.8621 100.614 25.8621C100.32 25.8621 100.059 25.8965 99.829 25.9544C99.4019 25.6318 98.8924 25.4963 98.4297 25.4963C98.3054 25.4963 98.1848 25.5074 98.0666 25.5308C98.0051 25.5234 97.9411 25.5197 97.8746 25.5197H97.8032C97.5559 25.5197 97.311 25.5788 97.0907 25.6909C96.9774 25.7488 96.8827 25.7968 96.8064 25.8337C96.5098 25.8768 96.2095 25.9877 95.8784 26.1786C95.7812 26.234 95.6827 26.2808 95.588 26.3153C95.1917 26.4582 94.836 26.6823 94.5283 26.9804C94.5197 26.989 94.5111 26.9976 94.5025 27.005C94.0791 27.2365 93.6841 27.5333 93.3259 27.8917L93.0712 28.1467C93.0515 27.7082 92.8804 27.106 92.2134 26.5628C91.7457 26.1823 91.1993 25.9803 90.6331 25.9803C90.067 25.9803 89.5058 26.1613 89.0701 26.5062C89.0147 26.5505 88.9827 26.5702 88.9852 26.5702C88.7809 26.6626 88.6357 26.7402 88.5138 26.8215C88.4449 26.867 88.3895 26.9102 88.328 26.9656C88.3243 26.968 88.2283 27.0493 87.8874 27.2747C87.6154 27.4557 87.3102 27.6454 86.9804 27.84C86.9447 26.5407 85.9835 25.8621 85.0346 25.8621C84.0858 25.8621 83.5319 26.2266 83.2243 26.5086L82.7037 26.9631C82.508 27.085 82.3111 27.2414 82.1068 27.436C81.9899 27.5481 81.8926 27.6356 81.8126 27.6984C81.7154 27.776 81.6268 27.8634 81.5505 27.9607C81.3327 28.122 81.1136 28.3252 80.8761 28.5642L80.8428 28.5974C80.2398 29.0248 79.9346 29.5494 79.9346 30.1591C79.9346 30.7047 80.1524 31.2072 80.5315 31.5557C80.5942 31.6567 80.6705 31.7614 80.7727 31.8648C80.8293 31.9227 80.8908 31.9757 80.9548 32.0237L80.9905 32.291C81.0373 32.8809 81.3634 33.4043 81.964 33.8502C82.3172 34.1113 82.7997 34.4105 83.4039 34.4105C83.5282 34.4105 83.6513 34.3958 83.7719 34.3674L83.8864 34.3391C83.9024 34.3391 84.0058 34.3391 84.0058 34.3391C84.3528 34.3391 84.6876 34.2356 84.9805 34.0435C85.282 34.0053 85.5675 33.881 85.8001 33.6827C85.9589 33.6223 86.1066 33.5373 86.2383 33.4302C86.2617 33.4154 86.2838 33.4006 86.306 33.3859L86.7564 33.073C86.7884 33.0632 86.8216 33.0533 86.8536 33.0422C86.8216 33.1112 86.7958 33.1777 86.7712 33.2405C86.7515 33.2923 86.7182 33.3735 86.717 33.3748C86.6321 33.4733 86.5607 33.5829 86.5029 33.6999C86.1829 33.8169 85.9515 33.9967 85.7964 34.1581C85.7374 34.2184 85.6844 34.2824 85.6352 34.3502C85.5281 34.429 85.4211 34.5263 85.3189 34.6433C85.1872 34.7271 85.0679 34.8305 84.9669 34.9475C84.8709 35.0066 84.7873 35.0645 84.7122 35.1261C84.6753 35.1557 84.6396 35.1877 84.6051 35.2209C84.6051 35.2209 84.1928 35.6212 84.1867 35.6273C84.0525 35.7049 83.9147 35.8035 83.7855 35.934C83.6735 36.0486 83.5799 36.1791 83.5073 36.3207C83.463 36.3848 83.4199 36.4513 83.3793 36.519C83.1713 36.6816 83.0015 36.8749 82.8747 37.0929C82.8354 37.125 82.7984 37.1582 82.7627 37.1939C82.6114 37.3442 82.4403 37.572 82.3394 37.8959L81.4447 39.2076C81.308 39.4022 81.1813 39.651 81.0114 40.0574C81.0016 40.0808 80.993 40.1029 80.9831 40.1239C80.6902 40.4626 80.5708 40.8641 80.4958 41.1153C80.3912 41.4675 80.3382 41.6412 80.3198 41.8161C80.2361 42.0057 80.1696 42.2373 80.1696 42.5033C80.1696 43.0058 80.2103 43.3938 80.2989 43.7287C80.4589 44.331 80.8871 44.8384 81.6071 45.2818C82.1154 45.5934 82.4169 45.7486 82.6864 45.8323C82.8378 45.8803 82.9966 45.9037 83.1541 45.9037C83.207 45.9037 83.2612 45.9013 83.3141 45.8951L83.7744 45.8483C84.0095 45.8237 84.2359 45.7473 84.4377 45.6229L84.5583 45.549C84.7663 45.4308 84.9645 45.2633 85.2192 44.9948C85.2389 44.9751 85.2562 44.9554 85.2722 44.9394C85.4801 44.8039 85.6598 44.6253 85.7989 44.4147C86.1127 44.1844 86.3035 43.932 86.4155 43.6893C86.6776 43.4011 86.8536 43.0957 86.9398 42.7743C87.1145 42.5513 87.2351 42.3851 87.3225 42.2422C87.4764 42.0846 87.5957 41.8961 87.672 41.688L87.7496 41.4762L88.1422 40.9515C88.1594 40.9281 88.1754 40.9047 88.1914 40.8813C88.2788 40.7495 88.3551 40.6128 88.4179 40.4712C88.5668 40.2766 88.7181 40.0081 88.7735 39.6707C88.8031 39.6214 88.8289 39.5709 88.8535 39.5192C88.9926 39.3615 89.2978 39.0142 89.3618 38.4883C89.3667 38.4785 89.3717 38.4674 89.3766 38.4563C89.7692 37.9821 89.8799 37.5018 89.9021 37.1718C89.9046 37.1668 89.9082 37.1619 89.9107 37.157C90.1015 36.9402 90.2405 36.7074 90.3267 36.4587C90.3981 36.3737 90.4621 36.2862 90.5199 36.1939C90.5445 36.1877 90.5691 36.1803 90.5925 36.1742C90.6516 36.1569 90.7094 36.1372 90.766 36.1138H90.878C90.9765 36.1138 91.0737 36.1052 91.171 36.0867C91.3236 36.3158 91.5119 36.5227 91.7297 36.6988C92.2072 37.0843 92.6786 37.2715 93.1696 37.2715C94.0963 37.2715 95.0341 36.5818 95.0341 35.264C95.0341 35.232 95.0317 35.2037 95.0305 35.1729C95.3344 35.0313 95.6667 34.8404 96.047 34.5879C96.0889 34.5596 96.1307 34.53 96.1701 34.498C96.3178 34.4167 96.4372 34.3453 96.5405 34.2751C96.5799 34.2492 96.6181 34.2196 96.655 34.1901L97.5177 33.4868C97.6039 33.6408 97.7122 33.7849 97.8426 33.913C98.0789 34.1457 98.3817 34.2985 98.7078 34.3477C99.0327 34.4931 99.3822 34.5669 99.7465 34.5669C100.111 34.5669 100.414 34.4413 100.612 34.3403C100.641 34.3293 100.677 34.3194 100.713 34.3095C101.125 34.195 101.471 34.009 101.738 33.7541C101.828 33.7048 101.911 33.6457 101.989 33.5792C102.287 33.4548 102.546 33.2553 102.749 32.993C102.774 32.977 102.799 32.961 102.822 32.9437C102.885 33.1654 102.98 33.3588 103.065 33.5176C103.114 33.6088 103.152 33.695 103.179 33.7738C103.366 34.3095 103.762 34.7418 104.391 35.0965C104.956 35.4155 105.168 35.535 105.592 35.535C105.628 35.535 105.664 35.535 105.699 35.5313L106.019 35.5103C106.113 35.5276 106.207 35.5362 106.301 35.5362C106.559 35.5362 106.816 35.4734 107.05 35.3465L107.128 35.3034L107.244 35.28C107.452 35.2369 107.649 35.152 107.824 35.03C107.974 34.9253 108.075 34.8588 108.14 34.8182C108.565 34.7086 108.921 34.4487 109.154 34.094C109.158 34.0916 109.161 34.0891 109.164 34.0866C109.18 34.0805 109.197 34.0731 109.213 34.0669C109.413 34.5165 109.756 34.8059 110.004 34.9881C110.445 35.3133 110.984 35.4771 111.609 35.4771C112.315 35.4771 112.946 35.2677 113.452 34.8699C113.592 34.8022 113.721 34.7123 113.834 34.6076C114.263 34.4229 114.522 34.0694 114.674 33.8009C114.867 33.6679 115.032 33.4979 115.16 33.3009C115.236 33.2307 115.309 33.1531 115.375 33.0656C115.384 33.0595 115.394 33.0533 115.402 33.0484C115.564 33.2528 115.764 33.4487 116.004 33.6346C116.567 34.0681 117.229 34.296 117.917 34.296C118.016 34.296 118.116 34.2861 118.215 34.2677L118.461 34.2196C118.841 34.1975 119.176 34.1002 119.462 33.929C119.734 33.8822 120.037 33.7566 120.317 33.477C120.532 33.3871 120.726 33.2491 120.883 33.073C120.928 33.0484 120.973 33.0225 121.016 32.9942C121.242 32.844 121.433 32.6457 121.617 32.3698C121.643 32.3304 121.668 32.291 121.69 32.2503C121.721 32.222 121.752 32.1912 121.781 32.1604C122.104 31.9917 122.368 31.7454 122.552 31.4375C123.086 31.0606 123.404 30.4436 123.404 29.7256C123.404 29.5827 123.387 29.4534 123.354 29.3191C123.372 29.2231 123.381 29.1258 123.381 29.0285C123.381 28.2107 122.761 27.34 121.613 27.34C121.272 27.34 120.945 27.4373 120.637 27.6306C120.664 27.5888 120.69 27.5456 120.713 27.5013C120.997 27.2747 121.213 26.9582 121.327 26.5789C121.482 26.4064 121.608 26.2032 121.699 25.9741C121.862 25.7746 121.998 25.5382 122.107 25.261C122.289 25.0529 122.42 24.8054 122.488 24.5356C122.558 24.4297 122.622 24.3213 122.681 24.2105C122.838 24.0603 122.964 23.8767 123.048 23.6711L123.708 22.054C123.739 21.9789 123.764 21.9013 123.782 21.8224C123.791 21.804 123.801 21.783 123.813 21.7596C123.971 21.4444 124.064 21.1426 124.096 20.8446C124.201 20.549 124.262 20.2965 124.262 20.0305C124.262 19.6056 124.132 18.9701 123.507 18.358L123.513 18.3568Z" fill="#20003D"/>
<path d="M92.8028 33.9859C92.5074 33.8369 92.2133 33.7618 91.9216 33.7618L91.5549 33.7852C91.2632 33.7852 91.07 33.8012 90.9752 33.832L90.5383 33.9379C90.4115 33.9539 90.2995 33.9884 90.2011 34.0438C90.1026 34.0992 90.046 34.1263 90.03 34.1263C90.014 34.1263 89.9906 34.1189 89.9586 34.1029C89.9266 34.0869 89.8959 34.0795 89.8639 34.0795C89.8319 34.0795 89.7986 34.0869 89.763 34.1029C89.7273 34.1189 89.7014 34.1263 89.6867 34.1263C89.6547 34.1263 89.6399 34.1103 89.6399 34.0795L89.9119 33.4058C89.9906 33.1928 90.0571 32.9932 90.1125 32.8036C90.1679 32.6151 90.2319 32.4895 90.3069 32.4255C90.382 32.3627 90.4189 32.2764 90.4189 32.1656L90.5605 31.9525C90.5765 31.7247 90.6429 31.5473 90.7611 31.4205C90.7931 31.2555 90.8078 31.1643 90.8078 31.1495V31.1027L90.7844 31.0079V30.8774C90.958 30.7678 91.0441 30.6889 91.0441 30.6409L91.0207 30.3699C91.0835 30.2517 91.1389 30.035 91.1857 29.7209C91.3826 29.4697 91.481 29.1618 91.481 28.7997L91.5044 28.2331C91.5044 28.0841 91.4096 27.9326 91.2213 27.7787C91.033 27.6247 90.8361 27.5484 90.6318 27.5484C90.3955 27.5484 90.2011 27.61 90.0473 27.7306C89.8934 27.8526 89.7556 27.9413 89.6337 27.9967C89.5119 28.0521 89.427 28.0952 89.3802 28.1272C89.2781 28.2221 89.0688 28.3735 88.7538 28.5817C88.4387 28.7911 88.1003 29.0004 87.7384 29.2135C87.3766 29.5682 87.0935 29.7455 86.888 29.7455C86.7933 29.8404 86.7083 29.9093 86.6345 29.9524C86.5594 29.9955 86.4991 30.0534 86.4511 30.1236C86.4043 30.1951 86.2997 30.2677 86.1385 30.3416C85.9773 30.4167 85.8407 30.4783 85.7312 30.5251L85.5072 30.6434C85.389 30.6828 85.3029 30.7616 85.2475 30.8798L84.9521 31.0104C84.8733 31.0572 84.7946 31.0966 84.7158 31.1286L84.61 31.1766C84.4057 31.3183 84.2358 31.3897 84.1017 31.3897C84.0069 31.3897 83.9602 31.3503 83.9602 31.2715C83.9602 31.1138 84.0205 30.9352 84.1435 30.7345C84.2654 30.5337 84.3454 30.3761 84.386 30.2616C84.4254 30.147 84.5349 29.9709 84.7158 29.7308C84.8967 29.4906 85.0013 29.2972 85.0284 29.1519C85.0555 29.0066 85.1269 28.8452 85.2413 28.6679C85.3558 28.4905 85.4124 28.2405 85.4124 27.9179C85.4124 27.5952 85.2869 27.4338 85.0346 27.4338C84.7047 27.4338 84.4451 27.52 84.2555 27.6937L83.6193 28.2492C83.4937 28.312 83.351 28.4203 83.1897 28.5743C83.0285 28.7282 82.8944 28.8477 82.7848 28.9339L82.7147 29.099C82.5892 29.1224 82.3467 29.3157 81.9861 29.6778L81.8446 29.8194C81.6181 29.9611 81.5037 30.0756 81.5037 30.1618C81.5037 30.2874 81.5443 30.3761 81.6267 30.4278C81.7092 30.4783 81.7695 30.5436 81.8077 30.6224C81.847 30.7012 81.8741 30.748 81.8901 30.7641C81.9529 30.7801 82.007 30.8035 82.0538 30.8355C82.0846 30.8355 82.1215 30.8121 82.1646 30.7641C82.2076 30.7173 82.2753 30.6581 82.3689 30.5867C82.4624 30.5153 82.5436 30.3958 82.615 30.2259C82.6851 30.0571 82.7713 29.9721 82.8734 29.9721C82.9202 29.9721 82.9448 29.9882 82.9448 30.0202V30.067C82.7479 30.4525 82.6495 30.7838 82.6495 31.0584V31.1532C82.6655 31.2013 82.6728 31.2321 82.6728 31.2481C82.6728 31.2875 82.6408 31.354 82.5781 31.4488C82.5153 31.5424 82.4833 31.5978 82.4833 31.6139L82.5535 32.1459C82.5535 32.2715 82.6679 32.4193 82.8968 32.5893C83.1257 32.758 83.2943 32.843 83.4051 32.843L83.7952 32.7482L83.9368 32.7715H84.0082C84.0869 32.7715 84.1632 32.7211 84.2383 32.6176C84.3134 32.5154 84.3897 32.4636 84.4684 32.4636L84.7884 32.4871C84.93 32.322 85.0838 32.2309 85.2499 32.2161C85.2819 32.1693 85.3361 32.1299 85.4149 32.0979L86.1127 31.6139C86.3416 31.5744 86.4868 31.519 86.5496 31.4488C86.6677 31.4328 86.7625 31.3528 86.8339 31.2062C86.904 31.0609 86.9791 30.9882 87.0579 30.9882C87.0739 30.9882 87.1206 30.9956 87.1994 31.0116L87.5661 30.8343C87.6289 30.6458 87.6769 30.551 87.7077 30.551C87.7471 30.551 87.7667 30.5584 87.7667 30.5744L87.9317 30.6926H87.955L88.2504 30.5042C88.3132 30.4882 88.3846 30.4143 88.4633 30.28L88.6049 30.2566C88.6209 30.2566 88.6701 30.2172 88.7525 30.1384C88.835 30.0596 88.9002 30.0202 88.947 30.0202H88.9938L89.1821 30.067C89.2362 30.067 89.3199 30.0214 89.4294 29.9315C89.539 29.8416 89.6103 29.796 89.6423 29.796C89.6743 29.796 89.6891 29.812 89.6891 29.8441C89.6891 29.9143 89.6423 30.0756 89.5476 30.3281L89.4528 30.4574C89.4208 30.6224 89.3974 30.7259 89.3814 30.7641L88.851 32.2641C88.7956 32.2962 88.7525 32.3269 88.7218 32.359C88.6664 32.6114 88.6196 32.7568 88.5802 32.7962L88.5569 32.8442V32.9982L88.5101 33.093L88.5335 33.2346V33.3763C88.5335 33.4157 88.5015 33.4514 88.4387 33.4822C88.3759 33.5142 88.3083 33.6213 88.2381 33.8061C88.1667 33.9921 88.12 34.1004 88.0966 34.1312L88.1433 34.3911L88.12 34.4502L87.907 34.3911V34.4145C87.7963 34.6904 87.7224 34.8431 87.6831 34.8751L87.4 35.0993C87.368 35.1313 87.3212 35.1473 87.2585 35.1473C86.9754 35.1473 86.8376 35.2692 86.8449 35.5131C86.8129 35.5439 86.7489 35.5685 86.6505 35.5833C86.552 35.5993 86.4548 35.7089 86.3613 35.9146L86.3145 35.938H86.2431L86.1607 35.9737C86.0659 36.0993 85.9761 36.1868 85.8887 36.2336C85.8013 36.2804 85.7398 36.3198 85.7004 36.3518L85.2992 36.741C85.2832 36.8198 85.2216 36.8801 85.1158 36.9245C85.01 36.9676 84.941 37.0045 84.909 37.0365L84.8857 37.1067C84.8069 37.2016 84.738 37.305 84.6789 37.4196C84.6198 37.5341 84.5214 37.6388 84.3835 37.7324C84.2457 37.826 84.1768 37.9479 84.1768 38.0982C84.13 38.1524 84.0943 38.2016 84.0709 38.246C84.0475 38.2891 84.0045 38.3112 83.9417 38.3112H83.8703C83.8383 38.342 83.8236 38.4098 83.8236 38.512L82.7368 40.1057C82.6741 40.1919 82.583 40.3766 82.4661 40.6611C82.3479 40.9444 82.2618 41.0996 82.2064 41.1279C82.151 41.1562 82.0846 41.3015 82.0058 41.5651C81.927 41.8287 81.8876 41.9691 81.8876 41.9838V42.208L81.8643 42.3028C81.7855 42.3977 81.7461 42.4642 81.7461 42.5036C81.7461 42.8583 81.772 43.1317 81.8224 43.325C81.8741 43.5172 82.0784 43.7241 82.4353 43.9445C82.7934 44.165 83.0347 44.2943 83.1614 44.3337L83.6217 44.2869L83.7756 44.1921C83.8383 44.1601 83.9429 44.0677 84.0882 43.9137C84.2334 43.7598 84.338 43.6674 84.4008 43.6366C84.4635 43.6046 84.5115 43.5467 84.5423 43.4593L84.4955 43.2462H84.6604C84.7158 43.2462 84.786 43.2142 84.8733 43.1514C84.9607 43.0886 85.0038 43.0405 85.0038 43.0098L84.9447 42.7733C84.9447 42.6871 85.0469 42.644 85.2524 42.644C85.3779 42.5097 85.4407 42.3964 85.4407 42.3016C85.4407 42.2856 85.4173 42.2302 85.3706 42.1366C85.4259 42.1366 85.5392 42.027 85.7127 41.8065C85.8862 41.586 85.9908 41.4383 86.0253 41.3631C86.061 41.288 86.1213 41.2153 86.2087 41.1451L86.2911 40.921C86.2911 40.8569 86.3305 40.7707 86.4093 40.6611L86.8929 40.0121C86.9717 39.8938 87.0271 39.7719 87.0579 39.6463C87.176 39.5354 87.2351 39.4529 87.2351 39.3987C87.2351 39.3667 87.2228 39.3507 87.1994 39.3507L87.128 39.2091V39.1376C87.2929 39.0428 87.4062 38.9344 87.464 38.8137C87.5231 38.6918 87.5957 38.581 87.6831 38.4824C87.7692 38.3839 87.8135 38.3186 87.8135 38.2878L87.7667 38.0514C87.8923 37.9331 87.955 37.8432 87.955 37.7804V37.6622C88.2147 37.4651 88.3452 37.257 88.3452 37.0365V36.9306C88.3292 36.8838 88.3218 36.8518 88.3218 36.8358C88.3218 36.8038 88.3378 36.7656 88.3698 36.7176L88.4646 36.5525C88.5593 36.3641 88.6479 36.2237 88.7304 36.1338C88.8128 36.0439 88.8584 35.9601 88.8658 35.8862C88.8732 35.8111 88.9175 35.7114 88.9962 35.5845C89.2091 35.4108 89.315 35.2027 89.315 34.9589C89.315 34.9194 89.3667 34.8763 89.4688 34.8283C89.571 34.7815 89.6867 34.7495 89.8171 34.7335C89.9463 34.7175 90.0669 34.6941 90.1777 34.6633L90.4017 34.545H90.8854L91.2398 34.4502H91.2755C91.3863 34.497 91.4564 34.5204 91.4884 34.5204H91.5352L91.7001 34.4736L91.9955 34.5684C92.153 34.5684 92.2674 34.683 92.3376 34.9108C92.4078 35.1387 92.537 35.3283 92.7216 35.4774C92.9062 35.6264 93.0588 35.7015 93.1769 35.7015C93.3739 35.7015 93.4723 35.5549 93.4723 35.2643C93.4723 34.8948 93.4342 34.6263 93.3603 34.4613C93.2852 34.2963 93.1006 34.1386 92.804 33.9896L92.8028 33.9859ZM87.0591 36.454C86.7994 36.7767 86.6702 36.9934 86.6702 37.1031C86.6382 37.1979 86.5951 37.294 86.5397 37.3925C86.4843 37.491 86.4339 37.5957 86.3871 37.7053L85.9268 38.4849L85.7619 38.6388C85.7459 38.6622 85.7385 38.7608 85.7385 38.9344C85.6044 39.0367 85.4985 39.2571 85.4198 39.5958C85.325 39.6512 85.2709 39.7054 85.2549 39.7608L85.1958 39.9259C85.1798 39.9887 85.0247 40.2522 84.7306 40.7165C84.4352 41.1808 84.2888 41.453 84.2888 41.5306C84.2888 41.6082 84.2358 41.6723 84.1288 41.7191C84.0229 41.7671 83.9466 41.873 83.8986 42.038C83.8199 42.0541 83.7645 42.0848 83.7337 42.1316L83.5454 42.4974C83.4593 42.6785 83.2894 42.8287 83.0384 42.947L82.6839 43.1243C82.6519 43.1243 82.6371 43.1083 82.6371 43.0763C82.6371 42.9272 82.6888 42.6982 82.791 42.3915L82.7442 42.3435C82.6741 42.2967 82.6384 42.2499 82.6384 42.2018C82.6384 42.1698 82.6544 42.1464 82.6851 42.1304C82.8033 42.0836 82.8858 41.9137 82.9325 41.623C82.9633 41.591 82.999 41.5146 83.0384 41.3927C83.0777 41.2708 83.1282 41.1464 83.1922 41.0207C83.4593 40.7375 83.6045 40.3631 83.6291 39.8988L83.8531 39.7805C83.9786 39.5047 84.0648 39.3593 84.1128 39.3433C84.1595 39.3273 84.2051 39.2805 84.2481 39.2017C84.2912 39.1229 84.3441 39.0502 84.4069 38.9837C84.4697 38.9172 84.5017 38.8679 84.5017 38.8359L84.4315 38.5526C84.4315 38.5058 84.4549 38.4701 84.5017 38.4467C84.5718 38.4861 84.6112 38.5058 84.6198 38.5058H84.6666C84.7367 38.5058 84.8217 38.4085 84.9201 38.2164C85.0186 38.0231 85.101 37.9097 85.1675 37.874C85.2339 37.8383 85.3312 37.7546 85.4567 37.6203L85.6807 37.3839C85.8542 37.1634 85.9601 37.0378 85.9994 37.0058L86.7539 36.3678C86.8646 36.3124 86.9422 36.2582 86.9902 36.2028C87.0369 36.2028 87.0603 36.2582 87.0603 36.3678V36.4503L87.0591 36.454Z" fill="#9D4EDD"/>
<path d="M122.416 19.479C122.228 19.2943 122.046 19.2019 121.873 19.2019C121.646 19.2019 121.469 19.2918 121.343 19.4729L121.072 19.7561C120.978 19.8263 120.822 20.0221 120.606 20.3411C120.389 20.6601 120.237 20.8966 120.146 21.0493C120.054 21.202 119.906 21.3978 119.698 21.6343C119.488 21.8708 119.385 22.0358 119.385 22.1306L119.432 22.2957L119.408 22.3782C119.314 22.4422 119.221 22.4841 119.131 22.5087C119.042 22.5334 118.964 22.6368 118.901 22.8215C118.839 23.0063 118.791 23.1147 118.76 23.1467C118.728 23.1787 118.687 23.2391 118.635 23.3302C118.584 23.4201 118.539 23.4977 118.5 23.5605C118.461 23.6233 118.437 23.6923 118.429 23.7674C118.421 23.8425 118.37 23.9115 118.275 23.9743L118.132 24.1874C118.037 24.5335 117.875 24.8721 117.645 25.2022C117.511 25.4781 117.427 25.6727 117.395 25.7872C117.363 25.9018 117.34 25.9658 117.324 25.9818C117.245 26.3513 117.098 26.674 116.884 26.9498L116.743 27.1383C116.641 27.4289 116.558 27.5755 116.495 27.5755C116.463 27.5287 116.433 27.4893 116.401 27.4573C116.369 27.4252 116.329 27.3193 116.282 27.1383C116.236 26.9572 116.127 26.8033 115.957 26.6777C115.788 26.552 115.62 26.4892 115.455 26.4892C115.377 26.4892 115.274 26.552 115.148 26.6777C115.014 26.6148 114.931 26.5828 114.899 26.5828C114.852 26.5828 114.804 26.5988 114.758 26.6296C114.711 26.6616 114.663 26.6777 114.616 26.6777H114.486C114.321 26.7479 114.21 26.8119 114.154 26.8661C113.988 26.8661 113.791 26.9806 113.564 27.2085L113.517 27.2319C113.406 27.2479 113.324 27.2787 113.268 27.3255C113.213 27.3735 113.107 27.4511 112.95 27.5619C112.792 27.6715 112.658 27.8144 112.548 27.9868C112.217 28.2233 111.961 28.4869 111.78 28.7775L111.686 28.8009L111.614 28.9549C111.512 29.0645 111.356 29.3145 111.148 29.7049C110.939 30.0953 110.827 30.3256 110.812 30.3958C110.797 30.4636 110.713 30.5953 110.572 30.7838C110.596 30.721 110.626 30.6643 110.668 30.62C110.727 30.5572 110.756 30.5104 110.756 30.4783C110.756 30.4303 110.749 30.3958 110.733 30.3724L110.71 30.184V30.1138C110.788 30.035 110.828 29.9525 110.828 29.8662C110.828 29.7086 110.745 29.6298 110.58 29.6298C110.416 29.6298 110.284 29.7345 110.162 29.9426C110.04 30.1507 109.971 30.2554 109.955 30.2554C109.885 30.2714 109.755 30.354 109.566 30.503C109.275 30.7936 109.063 30.9833 108.929 31.0695C108.795 31.1557 108.675 31.2493 108.568 31.3466C108.462 31.4451 108.348 31.5178 108.226 31.5658C108.104 31.6126 107.98 31.6902 107.854 31.7961C107.729 31.9021 107.596 31.9784 107.459 32.0265C107.322 32.0733 107.203 32.1287 107.105 32.1915C107.007 32.2543 106.892 32.3023 106.763 32.3331C106.634 32.3651 106.536 32.4058 106.474 32.4575C106.411 32.5092 106.371 32.5339 106.355 32.5339L106.191 32.4858C106.088 32.5339 106.029 32.5573 106.013 32.5573C105.707 32.5573 105.553 32.4982 105.553 32.3799C105.553 32.3319 105.583 32.2703 105.642 32.1915C105.701 32.1127 105.746 32.024 105.777 31.9255C105.809 31.8269 105.84 31.7617 105.872 31.7309L105.967 31.5892C106.029 31.455 106.079 31.3651 106.114 31.3183C106.15 31.2703 106.167 31.2395 106.167 31.2235V31.0104C106.167 30.9476 106.246 30.8885 106.403 30.833C106.506 30.6914 106.588 30.5498 106.651 30.4081L106.769 30.3256C107.186 29.7899 107.45 29.4955 107.559 29.4401C107.693 29.227 107.76 29.0152 107.76 28.8021C107.76 28.7233 107.703 28.5152 107.589 28.1765C107.474 27.8378 107.386 27.6137 107.323 27.5041L107.253 27.3267C107.221 26.7528 106.97 26.4646 106.497 26.4646C106.096 26.4646 105.75 26.6099 105.458 26.9018C105.396 26.9806 105.336 27.0361 105.281 27.0668C105.226 27.0989 105.191 27.1296 105.175 27.1617C105.01 27.3661 104.735 27.5829 104.349 27.8107L104.278 27.9647L104.101 28.0127L103.959 28.1777C103.771 28.2418 103.595 28.3612 103.434 28.5386C103.273 28.7159 103.131 28.8305 103.009 28.881C102.887 28.9315 102.811 28.9967 102.779 29.0756C102.747 29.1544 102.668 29.2012 102.543 29.2172C102.417 29.2332 102.218 29.3551 101.947 29.583C101.681 29.8059 101.548 30.1064 101.542 30.4796C101.506 30.5104 101.46 30.5276 101.396 30.5276L101.207 30.6926C101.114 30.7715 101.031 30.87 100.96 30.9882L100.842 31.035C100.795 31.051 100.714 31.1323 100.601 31.2777C100.487 31.423 100.305 31.5277 100.054 31.5905C99.9989 31.5424 99.9718 31.4451 99.9718 31.2949L100.019 30.9648L99.9952 30.6692C99.9952 30.6064 100.028 30.5338 100.095 30.4513C100.161 30.3687 100.195 30.3035 100.195 30.2567V30.2333L100.359 29.7492C100.375 29.6704 100.399 29.6002 100.43 29.5362C100.886 29.0793 101.114 28.5952 101.114 28.0829C101.114 27.6506 100.944 27.4339 100.607 27.4339C100.134 27.4339 99.8253 27.578 99.6801 27.8649C99.5349 28.1519 99.4217 28.296 99.3441 28.296C99.2813 28.296 99.242 28.2258 99.226 28.0829C99.178 27.4068 98.9109 27.0681 98.4223 27.0681C98.3755 27.0681 98.3362 27.0755 98.3042 27.0915L98.1146 27.1863H98.0913C97.9731 27.1235 97.898 27.0915 97.8673 27.0915H97.7959C97.4094 27.2885 97.2015 27.3871 97.1695 27.3871H97.0747C96.9725 27.3871 96.8322 27.4388 96.655 27.541C96.4778 27.6432 96.2969 27.7282 96.1123 27.7947C95.9277 27.8612 95.7615 27.9659 95.6163 28.1075C95.4711 28.2492 95.3738 28.328 95.3271 28.344C95.0046 28.509 94.7056 28.7295 94.4287 29.0054L94.0742 29.3601C93.8773 29.4943 93.7432 29.6162 93.673 29.7258C93.6016 29.8367 93.5069 29.9451 93.3899 30.051C93.2718 30.1569 93.2164 30.2579 93.225 30.3527L93.1069 30.5067C93.0601 30.5387 92.9678 30.6618 92.83 30.8786C92.6921 31.0954 92.6232 31.2198 92.6232 31.2506L92.6466 31.5695C92.4977 31.5695 92.4226 31.6163 92.4226 31.7112L92.446 32.1004V32.1718C92.43 32.2038 92.4226 32.2666 92.4226 32.3602C92.4226 32.5573 92.4583 32.71 92.5284 32.8208L92.6466 33.3048C92.67 33.4699 92.8238 33.6115 93.1069 33.7297C93.3899 33.848 93.6373 33.9071 93.8502 33.9071C94.1099 33.9071 94.5542 33.699 95.1843 33.2814L95.2545 33.2112C95.4354 33.1164 95.5732 33.0376 95.668 32.9748L96.5652 32.2432C96.6759 32.1644 96.7658 32.0634 96.8372 31.9415C96.9073 31.8195 96.9516 31.7506 96.9676 31.7346L97.1916 31.758L97.3098 31.6397C97.3491 31.5843 97.4205 31.54 97.5227 31.5043C97.6248 31.4698 97.6839 31.4242 97.6999 31.3688L97.7467 31.2986C97.8414 31.2358 97.9202 31.1643 97.983 31.0855C98.0223 30.9365 98.0728 30.838 98.1368 30.7899C98.2463 30.7899 98.3435 30.7505 98.426 30.6717C98.5085 30.5929 98.5651 30.5535 98.5971 30.5535C98.6291 30.5535 98.6438 30.5769 98.6438 30.6249L98.5737 31.2038C98.5737 31.2358 98.5811 31.274 98.5971 31.322C98.6131 31.3688 98.6205 31.4119 98.6205 31.4525C98.6205 31.4846 98.6131 31.508 98.5971 31.5227C98.5811 31.5387 98.5737 31.5621 98.5737 31.5942C98.5737 31.6262 98.5934 31.6656 98.6328 31.7124C98.6722 31.7592 98.6918 31.7986 98.6918 31.8306L98.6451 32.0548C98.6451 32.2124 98.6808 32.3356 98.7509 32.4267C98.8223 32.5166 98.8617 32.5905 98.8691 32.6447C98.8764 32.7001 98.9048 32.7506 98.9515 32.7987C99.0857 32.8147 99.2149 32.8516 99.3404 32.9107C99.466 32.9699 99.6038 32.9994 99.7527 32.9994C99.7847 32.9994 99.8413 32.9772 99.9238 32.9341C100.006 32.891 100.132 32.8455 100.302 32.7987C100.47 32.7519 100.595 32.689 100.673 32.6102L100.697 32.492C100.807 32.4612 100.901 32.4255 100.98 32.3861C101.105 32.2444 101.221 32.1656 101.328 32.1496C101.434 32.1336 101.516 32.0634 101.575 31.9365C101.634 31.8097 101.75 31.7198 101.924 31.6656L102.042 31.5006C102.191 31.3983 102.283 31.3121 102.319 31.2407C102.354 31.1693 102.431 31.1028 102.549 31.0399L102.631 30.886L102.678 30.5559C102.735 30.4574 102.777 30.3613 102.812 30.2653C102.816 30.2653 102.823 30.2616 102.826 30.2616C102.921 30.136 103.014 30.0251 103.109 29.9315C103.227 29.9315 103.317 29.8884 103.38 29.801C103.442 29.7148 103.482 29.668 103.498 29.6593C103.741 29.5965 103.887 29.5571 103.935 29.5411C103.981 29.5251 104.037 29.4426 104.1 29.2936L104.3 29.1987C104.395 29.0731 104.507 28.9807 104.636 28.9216C104.765 28.8625 104.85 28.8132 104.89 28.7738C104.929 28.7344 105.034 28.6753 105.202 28.5965C105.371 28.5177 105.479 28.4376 105.527 28.3538C105.574 28.2713 105.617 28.2295 105.656 28.2295C105.861 28.2295 105.963 28.344 105.963 28.5718C105.963 28.6039 105.931 28.6741 105.868 28.7849C105.821 28.8009 105.782 28.8613 105.75 28.9672C105.718 29.0731 105.695 29.1347 105.68 29.1495L105.526 29.3625C105.479 29.5128 105.412 29.6384 105.325 29.7406C105.239 29.8428 105.082 30.1224 104.853 30.5793C104.806 30.7838 104.744 30.9316 104.669 31.0227C104.594 31.1126 104.55 31.1976 104.534 31.2764C104.518 31.3552 104.479 31.4759 104.416 31.6373C104.353 31.7986 104.321 32.0683 104.321 32.4464C104.321 32.5092 104.364 32.6213 104.452 32.7827C104.538 32.944 104.609 33.1029 104.664 33.2605C104.72 33.4182 104.887 33.5758 105.165 33.7334C105.445 33.8911 105.589 33.9699 105.596 33.9699L105.938 33.9465L106.127 33.8874C106.15 33.8874 106.209 33.9157 106.304 33.9699L106.587 33.816L106.929 33.7445C107.345 33.4539 107.597 33.3073 107.683 33.3073C107.809 33.3073 107.872 33.2519 107.872 33.1423V33.1189L107.8 33.0006C107.8 32.9292 107.847 32.8947 107.942 32.8947H107.989L108.059 32.9181C108.075 32.9181 108.134 32.8873 108.236 32.8233L108.283 32.7051C108.299 32.5954 108.33 32.54 108.378 32.54C108.394 32.54 108.424 32.556 108.472 32.5868C108.519 32.6188 108.551 32.6349 108.567 32.6349C108.598 32.6349 108.659 32.5856 108.75 32.4871C108.84 32.3885 109.008 32.2494 109.251 32.0683C109.495 31.8873 109.683 31.7296 109.817 31.5966C109.95 31.4624 110.055 31.3836 110.13 31.3602C110.205 31.3368 110.265 31.2382 110.313 31.0646C110.365 31.0523 110.401 31.0301 110.435 31.0055C110.361 31.1606 110.322 31.3331 110.322 31.5252L110.392 31.7383C110.36 31.7703 110.322 31.7863 110.274 31.7863C110.227 31.8885 110.204 31.9636 110.204 32.0104L110.299 32.6127C110.322 32.8011 110.377 32.9612 110.464 33.0905C110.55 33.2211 110.609 33.3282 110.641 33.4157C110.672 33.5019 110.77 33.6066 110.936 33.7285C111.101 33.8504 111.326 33.912 111.609 33.912C112.011 33.912 112.334 33.7938 112.578 33.5573C112.633 33.5179 112.696 33.4871 112.766 33.4625C112.836 33.3369 112.893 33.247 112.932 33.1915L113.133 33.1447C113.164 33.1608 113.187 33.1681 113.203 33.1681C113.235 33.1681 113.293 33.0733 113.38 32.8849C113.467 32.6964 113.565 32.5881 113.676 32.5597C113.786 32.5326 113.855 32.4649 113.882 32.359C113.91 32.2531 113.939 32.2001 113.971 32.2001C114.089 32.2001 114.168 32.1077 114.207 31.923C114.247 31.7383 114.297 31.6447 114.361 31.6447H114.385L114.526 31.7395C114.582 31.7395 114.664 31.5942 114.775 31.3023C115.043 31.0892 115.207 30.9242 115.265 30.806C115.322 30.6877 115.369 30.6212 115.4 30.6052L115.471 30.5572C115.527 30.5017 115.577 30.4623 115.625 30.4389C115.736 30.4389 115.815 30.317 115.861 30.0732L115.956 30.0264L115.98 29.8724C116.089 29.8724 116.188 30.1249 116.275 30.6286L116.298 31.1126C116.408 31.3725 116.473 31.5954 116.493 31.7801C116.513 31.9649 116.668 32.1705 116.959 32.3947C117.251 32.6188 117.57 32.7309 117.916 32.7309L118.281 32.6595C118.485 32.6595 118.631 32.6201 118.718 32.5413C118.804 32.4624 118.867 32.4107 118.906 32.3873H119.178C119.209 32.3873 119.261 32.3208 119.331 32.1866C119.402 32.0535 119.492 31.9858 119.603 31.9858C119.635 31.9858 119.669 32.0018 119.709 32.0338C119.819 31.8688 119.89 31.7383 119.922 31.6434L120.146 31.6915C120.192 31.6594 120.248 31.5966 120.31 31.503V31.3971C120.31 31.3343 120.366 31.2727 120.475 31.2136C120.586 31.1545 120.708 31.0313 120.841 30.8417C121.038 30.8096 121.166 30.7271 121.225 30.5941C121.284 30.4611 121.364 30.3416 121.467 30.2394C121.711 30.1766 121.833 30.0079 121.833 29.7308C121.833 29.7 121.793 29.5768 121.715 29.365L121.809 29.0349C121.809 28.9561 121.743 28.9167 121.609 28.9167C121.546 28.9167 121.467 28.9561 121.374 29.0349L121.279 29.1298C121.13 29.1778 120.985 29.3182 120.843 29.5547C120.702 29.7911 120.392 30.067 119.913 30.3811C119.89 30.4045 119.858 30.4439 119.818 30.4993C119.779 30.5547 119.719 30.5978 119.636 30.6298C119.554 30.6619 119.497 30.6926 119.465 30.7247C119.347 30.9611 119.042 31.205 118.547 31.4562L118.382 31.5264C118.217 31.6681 118.111 31.7395 118.063 31.7395C117.968 31.7395 117.922 31.6767 117.922 31.5511L117.945 31.2801L117.804 30.7961L117.85 30.6311L117.827 30.3121L117.968 29.498C118.063 28.7418 118.185 28.3366 118.334 28.2812L118.429 27.9745C118.719 27.6518 118.866 27.4671 118.866 27.4203L118.771 27.1247C118.787 27.0619 118.834 27.0065 118.912 26.9597C119.188 26.9437 119.341 26.8341 119.373 26.6296C119.403 26.4252 119.479 26.323 119.597 26.323C119.722 26.323 119.801 26.2441 119.833 26.0865C119.833 25.7958 119.888 25.6419 119.998 25.6259C120.107 25.6099 120.189 25.5335 120.24 25.3956C120.292 25.2576 120.372 25.1222 120.483 24.9879C120.594 24.8537 120.683 24.6381 120.754 24.3389L120.8 24.3155C120.911 24.2761 120.965 24.2132 120.965 24.127V23.8906C121.083 23.8512 121.245 23.6073 121.449 23.159C121.465 23.143 121.512 23.1196 121.59 23.0876L122.251 21.4705C122.267 21.3757 122.318 21.2414 122.405 21.069C122.491 20.8953 122.534 20.7463 122.534 20.6207L122.558 20.4791C122.644 20.2512 122.688 20.1059 122.688 20.0418C122.688 19.8608 122.593 19.6773 122.405 19.4926L122.416 19.479ZM98.5122 29.4278C98.2328 29.7111 98.0186 29.9081 97.8697 30.019C97.8377 30.1138 97.7417 30.2062 97.5805 30.2961C97.4193 30.386 97.3221 30.519 97.2913 30.6914C97.1731 30.7468 97.0944 30.801 97.055 30.8564C97.0156 30.9119 96.9098 30.9784 96.7362 31.0572L96.4889 31.2456C96.1898 31.4107 95.9732 31.5326 95.8403 31.6114C95.7849 31.6989 95.7061 31.7666 95.604 31.8183C95.5018 31.87 95.4305 31.9168 95.3911 31.9599C95.3517 32.0031 95.3123 32.0289 95.2729 32.0363C95.2335 32.0437 95.1979 32.0646 95.1671 32.0954L94.9431 32.2137C94.8483 32.2457 94.7856 32.2777 94.7548 32.3085C94.7228 32.3405 94.6071 32.3972 94.4065 32.4797C94.2059 32.5622 94.0742 32.6041 94.0114 32.6041C93.8613 32.6041 93.7875 32.4119 93.7875 32.0265C93.7875 31.9636 93.833 31.8787 93.9228 31.7727C94.0127 31.6668 94.0668 31.5486 94.0828 31.418C94.0988 31.2875 94.153 31.205 94.2478 31.1705C94.3425 31.136 94.4213 31.0904 94.484 31.035L94.5665 30.8343C94.5665 30.8109 94.6686 30.716 94.8729 30.551C94.9283 30.3379 95.0502 30.2012 95.2385 30.1384C95.5535 29.918 95.7381 29.7492 95.7935 29.631C95.8883 29.631 96.0372 29.5547 96.2415 29.4007C96.4458 29.2468 96.6759 29.1384 96.9319 29.0756C97.1879 29.0128 97.3602 28.9561 97.4513 28.9044C97.5411 28.8539 97.6494 28.828 97.7762 28.828L98.0125 28.8748L98.1663 28.8514L98.3312 28.9339L98.5552 28.9105L98.7681 28.9339L98.8629 28.8748H98.8863C98.9171 28.8748 98.9331 28.8871 98.9331 28.9105C98.9331 28.9733 98.794 29.147 98.5146 29.4303L98.5122 29.4278ZM115.844 28.8021C115.585 29.1642 115.423 29.3687 115.361 29.4167C115.321 29.6051 115.234 29.7234 115.101 29.7714L115.018 29.9254L114.877 30.0436L114.854 30.1852C114.854 30.2333 114.825 30.2751 114.771 30.3158C114.717 30.3564 114.676 30.3971 114.653 30.4402C114.63 30.4833 114.588 30.5165 114.529 30.5412C114.47 30.5646 114.385 30.6372 114.275 30.7591C114.164 30.8811 114.077 30.9624 114.009 31.0005C113.943 31.04 113.91 31.0757 113.91 31.1065L113.815 31.2013C113.799 31.2013 113.752 31.2407 113.673 31.3195C113.65 31.3269 113.534 31.4353 113.325 31.6447C113.116 31.8528 112.953 31.9932 112.835 32.0634C112.717 32.1348 112.651 32.1779 112.635 32.194C112.359 32.4698 112.108 32.6065 111.879 32.6065C111.737 32.6065 111.659 32.5265 111.643 32.3651C111.627 32.2038 111.603 32.0683 111.572 31.9575C111.643 31.8319 111.704 31.6779 111.756 31.4969C111.808 31.3158 111.916 31.1471 112.081 30.9895C112.081 30.8638 112.191 30.6779 112.412 30.434V30.2801C112.459 30.1544 112.542 30.0571 112.66 29.9906C112.779 29.9241 112.904 29.8034 113.038 29.631C113.078 29.434 113.153 29.3354 113.262 29.3354H113.332L113.934 28.8514C114.045 28.647 114.122 28.5448 114.17 28.5448L114.442 28.5928C114.742 28.3637 114.935 28.2504 115.021 28.2504L115.316 28.2972C115.411 28.2504 115.5 28.2184 115.582 28.2036C115.665 28.1876 115.746 28.1642 115.825 28.1322C115.903 28.1001 115.95 28.0841 115.966 28.0841C116.068 28.0841 116.159 28.1235 116.238 28.2024C116.238 28.2418 116.108 28.4425 115.848 28.8046L115.844 28.8021ZM121.449 21.9767C121.379 22.0321 121.294 22.1934 121.195 22.4607C121.097 22.7279 120.992 22.9176 120.883 23.0272C120.772 23.1381 120.699 23.2255 120.665 23.2932C120.629 23.3598 120.553 23.4718 120.435 23.6295C120.317 23.7871 120.258 23.893 120.258 23.9485C120.123 24.0741 120.031 24.2022 119.981 24.3327C119.929 24.462 119.853 24.5273 119.751 24.5273C119.664 24.6061 119.503 24.8143 119.267 25.1529C119.188 25.35 119.097 25.4559 118.996 25.4719L119.114 25.1295L119.268 24.8697C119.268 24.8463 119.327 24.7933 119.445 24.7108C119.563 24.6283 119.623 24.5359 119.623 24.4337V24.2096L119.728 24.1147C119.752 23.9817 119.784 23.8672 119.823 23.7723L119.988 23.6073C120.083 23.4817 120.163 23.4041 120.23 23.377C120.298 23.3499 120.356 23.2575 120.408 23.0999C120.458 22.9422 120.563 22.7304 120.72 22.4619L121.122 21.7882C121.24 21.6466 121.316 21.5308 121.352 21.4397C121.387 21.3498 121.44 21.3042 121.512 21.3042C121.542 21.3042 121.558 21.4188 121.558 21.6466C121.558 21.8116 121.523 21.9225 121.453 21.9767H121.449Z" fill="#9D4EDD"/>
</svg>
