<svg width="52" height="30" viewBox="0 0 52 30" fill="none" xmlns="http://www.w3.org/2000/svg">
<path d="M50.6875 8.45876C50.0973 7.88207 49.3501 7.56418 48.5845 7.56418C47.9642 7.56418 47.3756 7.75828 46.8875 8.10674C46.8222 7.62684 46.6212 7.18974 46.3213 6.83772C46.6896 6.4052 46.9125 5.84482 46.9125 5.23349V3.12032C46.9125 1.75298 45.7985 0.640356 44.4295 0.640356H37.2997C37.1181 0.640356 36.9371 0.660734 36.7601 0.70098C36.5826 0.660734 36.402 0.640356 36.2204 0.640356H34.3551C33.4701 0.640356 32.6459 1.11617 32.2041 1.88187L30.5464 4.75461L28.8795 1.87779C28.4368 1.11465 27.6135 0.640356 26.7306 0.640356H24.8653C23.506 0.640356 22.3986 1.73719 22.3823 3.09077L22.0844 2.2721C21.7289 1.29601 20.7914 0.639848 19.7513 0.639848H18.5226C17.4826 0.639848 16.5445 1.29601 16.1895 2.2721L15.8458 3.21609L15.8269 3.19928C13.8616 1.40961 11.6907 0.502808 9.37453 0.502808C6.89458 0.502808 4.75076 1.39178 3.00225 3.14579C1.25679 4.89624 0.371826 7.03487 0.371826 9.5021C0.371826 11.9693 1.25832 14.1166 3.00633 15.8625C4.75433 17.6089 6.89713 18.4938 9.37453 18.4938C10.4569 18.4938 11.4954 18.3058 12.4757 17.9329C12.8828 18.2095 13.3689 18.3638 13.8743 18.3638H16.1314C17.1735 18.3638 18.1115 17.7067 18.4655 16.7285L19.1398 14.8696L19.4499 15.7214C19.0158 16.2115 18.7812 16.8044 18.7812 17.4453C18.7812 18.1377 19.0424 18.8009 19.5045 19.2946C19.5208 19.3175 19.5376 19.3404 19.555 19.3624C19.6718 19.8866 19.9809 20.5244 20.7317 21.0792C20.7949 21.126 20.8949 21.1999 21.0275 21.2814C20.8337 21.4944 20.6761 21.7409 20.5629 22.0089L20.0655 22.7374C19.9299 22.93 19.8156 23.1388 19.6784 23.4522C19.4014 23.8454 19.2851 24.2331 19.2239 24.4364C19.1668 24.6269 19.1209 24.7813 19.0888 24.9392C18.9929 25.2118 18.9444 25.4935 18.9444 25.7808C18.9444 26.2464 18.9873 26.625 19.0801 26.9749C19.2846 27.7386 19.7937 28.3754 20.595 28.8675C20.974 29.0998 21.2974 29.2766 21.6437 29.3841C21.8839 29.4595 22.1334 29.4972 22.3853 29.4972C22.4715 29.4972 22.5572 29.4926 22.6383 29.4845L22.95 29.4524C23.3198 29.4147 23.683 29.2914 23.9992 29.0968L24.0635 29.057C24.2971 28.921 24.5128 28.7483 24.7475 28.5084C24.9183 28.3795 25.0724 28.2312 25.2075 28.0641C25.4391 27.8644 25.6289 27.6372 25.7752 27.385C25.9624 27.1527 26.1099 26.9046 26.216 26.6438C26.2613 26.5822 26.3022 26.5246 26.3389 26.4701C26.5174 26.2617 26.6577 26.0274 26.7576 25.7727L26.9081 25.5714C26.9336 25.5373 26.9581 25.5021 26.9785 25.4711C27.0514 25.3621 27.1177 25.2484 27.1764 25.1328C27.3182 24.9229 27.4269 24.7003 27.5023 24.467C27.6401 24.279 27.8068 24.0049 27.9124 23.6508C27.9609 23.5754 28.0048 23.5005 28.0435 23.4262C28.4036 23.5861 28.7785 23.6661 29.1641 23.6661C30.4107 23.6661 31.4074 22.8734 31.7339 21.7231C31.7895 21.688 31.8461 21.6513 31.9037 21.6131C31.9272 21.5973 31.9506 21.581 31.9736 21.5642C32.0124 21.5417 32.0491 21.5203 32.0838 21.499C32.2169 21.557 32.3556 21.6024 32.4985 21.636C32.853 21.771 33.2279 21.8393 33.6155 21.8393C34.0032 21.8393 34.3561 21.7567 34.7162 21.5937C34.9009 21.5392 35.0753 21.4704 35.2396 21.3884C35.467 21.6243 35.7415 21.8331 36.0618 22.0135C36.5183 22.2708 36.9126 22.4929 37.5726 22.4929C37.6308 22.4929 37.6894 22.4908 37.7404 22.4873L37.8185 22.4822C37.896 22.4893 37.974 22.4929 38.0521 22.4929C38.4117 22.4929 38.7692 22.4144 39.0982 22.2616C39.3635 22.1933 39.6124 22.0828 39.8404 21.9325C40.3561 22.2733 40.9768 22.4526 41.644 22.4526C42.3897 22.4526 43.0819 22.2361 43.6562 21.8245C43.7526 21.7695 43.8454 21.7078 43.9342 21.6406C44.0984 21.5489 44.252 21.4383 44.3938 21.3094C44.8671 21.5366 45.3817 21.6548 45.9127 21.6548C46.0703 21.6548 46.229 21.6396 46.3851 21.6095L46.4713 21.5927C46.8263 21.5601 47.1578 21.4709 47.4613 21.3268C47.7801 21.2351 48.077 21.0802 48.3386 20.8688C48.5039 20.7761 48.6594 20.664 48.7997 20.5366C49.0675 20.3583 49.2991 20.1347 49.5046 19.857C49.7316 19.6965 49.9321 19.5035 50.0999 19.2839C50.7058 18.7546 51.0476 17.992 51.0476 17.1493C51.0476 17.0424 51.041 16.9364 51.0277 16.8304C51.0308 16.78 51.0323 16.7296 51.0323 16.6791C51.0323 15.943 50.6972 15.1926 50.0912 14.6959C50.1754 14.5558 50.2468 14.408 50.3029 14.2547C50.4687 14.058 50.6018 13.838 50.7007 13.5975L51.1471 12.5073C51.1726 12.4462 51.1955 12.384 51.2154 12.3203C51.346 12.0427 51.4357 11.7605 51.4832 11.4792C51.5582 11.2429 51.628 10.9469 51.628 10.6015C51.628 9.81031 51.295 9.04921 50.6895 8.45775L50.6875 8.45876ZM9.96467 7.71549C9.59181 8.14953 9.36585 8.71348 9.36585 9.3294V11.414C8.81192 11.4125 8.42376 11.25 8.02642 10.8542C7.62958 10.4588 7.46738 10.0671 7.46738 9.50261C7.46738 8.93815 7.62958 8.55403 8.02642 8.15819C8.42529 7.76083 8.81549 7.59832 9.3735 7.59832C9.56325 7.59832 9.76065 7.63754 9.96467 7.71498V7.71549Z" fill="#EFEEEE"/>
<path d="M44.429 6.29413C45.0156 6.29413 45.4909 5.81933 45.4909 5.23347V3.12031C45.4909 2.53445 45.0156 2.05965 44.429 2.05965H37.2993C37.1013 2.05965 36.9182 2.11721 36.7596 2.21146C36.601 2.11721 36.4179 2.05965 36.22 2.05965H34.3546C33.9751 2.05965 33.6242 2.2619 33.435 2.59049L30.548 7.5927L27.6493 2.58896C27.4595 2.26139 27.1091 2.05965 26.7301 2.05965H24.8648C24.2782 2.05965 23.8029 2.53445 23.8029 3.12031V11.1445L20.7481 2.75758C20.5955 2.33831 20.1967 2.05965 19.7504 2.05965H18.5211C18.0748 2.05965 17.6759 2.33831 17.5234 2.75758L15.0251 9.61722V9.32837C15.0251 8.74251 14.5497 8.26771 13.9631 8.26771H11.8479C11.2613 8.26771 10.7859 8.74251 10.7859 9.32837V12.5577C10.3876 12.7406 9.91421 12.8328 9.37252 12.8328C8.43604 12.8328 7.68879 12.5231 7.02162 11.8588C6.35547 11.195 6.04535 10.4466 6.04535 9.50209C6.04535 8.55758 6.35547 7.81634 7.02162 7.15305C7.68879 6.48823 8.43604 6.17899 9.37252 6.17899C10.2167 6.17899 11.069 6.55496 11.906 7.29773L12.0846 7.45617C12.286 7.63447 12.5375 7.72311 12.7895 7.72311C13.0414 7.72311 13.3016 7.63091 13.5041 7.447L15.0827 6.01292C15.3036 5.8122 15.4296 5.52742 15.4301 5.2294C15.4301 4.93086 15.3046 4.64659 15.0838 4.44536L14.868 4.24872C13.173 2.70511 11.324 1.92261 9.37303 1.92261C7.28481 1.92261 5.47968 2.67149 4.00814 4.14785C2.53761 5.62268 1.79138 7.42458 1.79138 9.5026C1.79138 11.5806 2.53761 13.3891 4.00967 14.8594C5.48172 16.3296 7.28634 17.0749 9.37303 17.0749C10.6222 17.0749 11.7887 16.7795 12.8599 16.1967C12.892 16.3011 12.9389 16.4015 13.0032 16.4932C13.2021 16.7764 13.5265 16.945 13.8729 16.945H16.1299C16.5767 16.945 16.9761 16.6654 17.1281 16.2456L18.4441 12.6173H19.8299L21.1525 16.2471C21.3051 16.6659 21.7039 16.945 22.1502 16.945H24.3991C24.4787 16.945 24.5567 16.9354 24.6327 16.918C24.7077 16.9348 24.7847 16.945 24.8643 16.945H26.9801C27.5666 16.945 28.042 16.4702 28.042 15.8844V11.709L29.6324 14.4477C29.8227 14.7748 30.1726 14.976 30.5511 14.976H30.5521C30.9311 14.976 31.281 14.7738 31.4707 14.4462L33.0438 11.7258V15.8844C33.0438 16.4702 33.5191 16.945 34.1057 16.945H36.221C36.4189 16.945 36.602 16.8875 36.7606 16.7932C36.9193 16.8875 37.1024 16.945 37.3003 16.945H44.43C45.0166 16.945 45.492 16.4702 45.492 15.8844V13.7636C45.492 13.1777 45.0166 12.7029 44.43 12.7029H40.4775V11.6153H44.43C45.0166 11.6153 45.492 11.1405 45.492 10.5546V8.44194C45.492 7.85608 45.0166 7.38128 44.43 7.38128H40.4775V6.29362H44.43L44.429 6.29413Z" fill="#20003D"/>
<path d="M9.3731 5.11886C10.4851 5.11886 11.574 5.585 12.611 6.50454L12.7895 6.66298L14.3682 5.2289L14.153 5.03276C12.6595 3.67255 11.0512 2.98328 9.3731 2.98328C7.57766 2.98328 6.02553 3.6267 4.76005 4.89623C3.49457 6.16525 2.85291 7.71497 2.85291 9.50261C2.85291 11.2902 3.49457 12.8451 4.76056 14.1095C6.02604 15.3734 7.57766 16.0143 9.3731 16.0143C11.0594 16.0143 12.5763 15.3826 13.8816 14.1365L13.9637 14.0585V9.32939H11.8485V13.1573C11.1905 13.6459 10.3586 13.894 9.3731 13.894C8.15404 13.894 7.13952 13.4742 6.2724 12.6102C5.40529 11.7467 4.98397 10.7304 4.98397 9.50261C4.98397 8.27485 5.40529 7.26615 6.2724 6.40214C7.13952 5.53864 8.15404 5.11886 9.3731 5.11886Z" fill="#FFB133"/>
<path d="M18.5217 3.12036L13.8729 15.8844H16.13L17.6995 11.5567H20.5732L22.1503 15.8844H24.3992L19.7504 3.12036H18.5212H18.5217ZM19.8055 9.44356H18.4737L19.1373 7.6167L19.8055 9.44356Z" fill="#FFB133"/>
<path d="M30.5501 9.71407L26.7302 3.12036H24.8649V15.8844H26.9801V7.76596L30.5506 13.9159L34.1048 7.76953V15.8844H36.2205V3.12036H34.3547L30.5501 9.71407Z" fill="#FFB133"/>
<path d="M44.429 5.23353V3.12036H37.2993V15.8844H44.429V13.7636H39.4151V10.5552H44.429V8.44199H39.4151V5.23353H44.429Z" fill="#FFB133"/>
<path d="M49.6939 9.47358C49.2792 9.06909 48.8615 8.98401 48.584 8.98401C48.1203 8.98401 47.7005 9.18422 47.4169 9.53726L47.3124 9.64628C47.1747 9.76957 47.0359 9.94125 46.8472 10.2184C46.6865 10.4548 46.5728 10.63 46.4998 10.7538C46.4983 10.7564 46.4575 10.8246 46.3157 10.9846C46.1739 11.1446 46.0306 11.328 45.9383 11.5434C45.796 11.6795 45.6608 11.872 45.5669 12.1466C45.5659 12.1492 45.5654 12.1517 45.5644 12.1538C45.5322 12.2006 45.5006 12.2521 45.468 12.3096C45.4415 12.3565 45.4175 12.3968 45.4012 12.4238C45.3568 12.4941 45.319 12.5679 45.2884 12.6438C45.2808 12.654 45.1701 12.8191 45.1701 12.8191C45.1063 12.9144 45.0579 13.0188 45.0278 13.1288C44.9957 13.2455 44.936 13.3678 44.8498 13.491C44.8192 13.5354 44.7916 13.5822 44.7677 13.6306C44.707 13.7549 44.659 13.8594 44.6202 13.9536C44.4953 13.921 44.3683 13.9047 44.2402 13.9047C44.1122 13.9047 43.9806 13.9261 43.8562 13.9689C43.7195 13.9699 43.5838 13.9944 43.4542 14.0407C43.3558 14.053 43.2599 14.0789 43.1681 14.1177C43.0829 14.1543 43.0064 14.191 42.937 14.2292C42.7616 14.2873 42.5902 14.3815 42.4234 14.512C42.2948 14.5639 42.1785 14.6342 42.075 14.7219C42.0464 14.7448 41.9995 14.7779 41.9358 14.8227C41.7741 14.9358 41.6302 15.0718 41.5058 15.2287C41.3278 15.3714 41.1712 15.5258 41.0375 15.6918C40.9177 15.7851 40.8182 15.9038 40.7473 16.0408C40.5025 16.0775 40.275 16.184 40.0811 16.3495C40.0602 16.2059 40.0128 16.0347 39.9225 15.7667C39.8475 15.5451 39.7858 15.3836 39.7272 15.2583C39.5838 14.3143 38.8662 13.8889 38.1781 13.8889C37.6242 13.8889 37.1217 14.0983 36.7249 14.4941C36.7178 14.5013 36.7111 14.5084 36.704 14.5155C36.605 14.5869 36.5199 14.6694 36.449 14.7616C36.4224 14.786 36.348 14.8487 36.1837 14.9455C36.1072 14.9908 36.0373 15.0454 35.9746 15.107C35.9159 15.1457 35.8608 15.19 35.8104 15.2394C35.7037 15.2996 35.6017 15.3714 35.5058 15.4544C35.2886 14.8319 34.7254 14.543 34.1939 14.543C33.9945 14.543 33.8185 14.5665 33.6625 14.6052C33.3732 14.3877 33.029 14.2955 32.7153 14.2955C32.6316 14.2955 32.55 14.3031 32.4694 14.3189C32.4276 14.3138 32.3842 14.3112 32.3393 14.3112H32.2914C32.1236 14.3112 31.9583 14.351 31.8094 14.4269C31.7324 14.4661 31.6686 14.4982 31.6171 14.5237C31.4161 14.5522 31.2126 14.6281 30.9892 14.7565C30.9234 14.7942 30.8571 14.8253 30.7928 14.8487C30.5245 14.9455 30.2838 15.0963 30.0762 15.298C30.07 15.3041 30.0644 15.3098 30.0588 15.3148C29.7727 15.4707 29.5054 15.672 29.2631 15.9134L29.0907 16.0856C29.0775 15.7896 28.9617 15.3826 28.5103 15.0158C28.1935 14.7585 27.8237 14.6225 27.4412 14.6225C27.0586 14.6225 26.6781 14.7443 26.3838 14.9776C26.3465 15.0077 26.3246 15.0209 26.3261 15.0209C26.1879 15.083 26.0895 15.1355 26.0068 15.1905C25.9604 15.2211 25.9222 15.2501 25.8814 15.2884C25.8788 15.2904 25.814 15.3454 25.5835 15.4972C25.3994 15.6195 25.1933 15.7479 24.9694 15.8793C24.9449 15.0015 24.2951 14.543 23.6529 14.543C23.0107 14.543 22.6358 14.7891 22.4277 14.9796L22.0752 15.2868C21.9426 15.3694 21.8095 15.4748 21.6713 15.6062C21.5922 15.6816 21.5259 15.7412 21.4723 15.784C21.406 15.8365 21.3469 15.8961 21.2953 15.9618C21.1479 16.0709 20.9995 16.2084 20.8393 16.3694L20.8169 16.3918C20.4088 16.6807 20.2023 17.0347 20.2023 17.4463C20.2023 17.8152 20.3497 18.154 20.6062 18.3893C20.6486 18.4581 20.7006 18.5284 20.7695 18.5982C20.8077 18.6374 20.849 18.6726 20.8929 18.7052L20.9169 18.8855C20.948 19.2839 21.1688 19.6375 21.5759 19.9385C21.8151 20.1148 22.1415 20.3171 22.5506 20.3171C22.6348 20.3171 22.7184 20.3074 22.8 20.2875L22.8776 20.2687C22.8888 20.2687 22.9587 20.2692 22.9587 20.2692C23.1938 20.2692 23.4203 20.1989 23.6182 20.0695C23.8227 20.044 24.0155 19.9594 24.1732 19.826C24.2808 19.7852 24.3807 19.7276 24.4695 19.6553C24.4848 19.6456 24.5001 19.6354 24.5154 19.6252L24.8204 19.4138C24.8424 19.4072 24.8643 19.4006 24.8862 19.3929C24.8648 19.4398 24.8469 19.4846 24.8306 19.5264C24.8169 19.5616 24.7949 19.6161 24.7944 19.6171C24.7373 19.6838 24.6888 19.7577 24.6496 19.8361C24.4328 19.9151 24.2767 20.0364 24.1716 20.1454C24.1318 20.1861 24.0956 20.2294 24.0625 20.2753C23.9895 20.3288 23.9176 20.394 23.8482 20.4735C23.7595 20.53 23.6789 20.5993 23.61 20.6793C23.5447 20.719 23.4886 20.7582 23.4376 20.7995C23.4126 20.8199 23.3882 20.8413 23.3647 20.8637C23.3647 20.8637 23.0852 21.1342 23.0816 21.1378C22.9908 21.1897 22.8975 21.2565 22.8102 21.3451C22.7342 21.422 22.671 21.5102 22.622 21.6059C22.5919 21.6492 22.5629 21.6936 22.5358 21.7394C22.3956 21.8489 22.2803 21.9804 22.1941 22.1266C22.1676 22.148 22.1426 22.1704 22.1181 22.1949C22.0156 22.2962 21.8998 22.4501 21.8314 22.6692L21.226 23.5551C21.1337 23.6865 21.0475 23.8546 20.9332 24.1292C20.9266 24.1455 20.9204 24.1598 20.9143 24.1735C20.7159 24.4023 20.6353 24.6738 20.5848 24.8429C20.5139 25.0808 20.4787 25.198 20.466 25.3162C20.4088 25.4441 20.365 25.6005 20.365 25.7803C20.365 26.1196 20.3925 26.382 20.4527 26.6082C20.5614 27.0147 20.8511 27.3575 21.3382 27.6571C21.682 27.868 21.8865 27.9719 22.0686 28.029C22.1711 28.0611 22.2782 28.0774 22.3854 28.0774C22.4216 28.0774 22.4573 28.0753 22.4935 28.0718L22.8051 28.0397C22.9643 28.0234 23.1178 27.9714 23.254 27.8874L23.3356 27.8374C23.4764 27.7575 23.6105 27.6444 23.7829 27.463C23.7962 27.4492 23.8079 27.4365 23.8192 27.4258C23.9605 27.3341 24.0813 27.2134 24.1762 27.0712C24.3884 26.9159 24.5174 26.7457 24.5934 26.5812C24.7715 26.3865 24.8898 26.1797 24.9479 25.9627C25.0663 25.8124 25.1479 25.7003 25.2071 25.6035C25.3111 25.4971 25.3922 25.3697 25.4437 25.2291L25.4963 25.0859L25.7615 24.7314C25.7732 24.7161 25.7845 24.7003 25.7952 24.684C25.8548 24.5948 25.9058 24.5021 25.9487 24.4069C26.0492 24.2754 26.1517 24.0946 26.1894 23.8658C26.2093 23.8322 26.2272 23.7981 26.2435 23.7634C26.3374 23.657 26.5439 23.4221 26.5878 23.067C26.5909 23.0599 26.5944 23.0528 26.5975 23.0456C26.8627 22.7252 26.9382 22.4007 26.953 22.178C26.9551 22.1745 26.9571 22.1714 26.9591 22.1684C27.0882 22.0216 27.1825 21.8642 27.2402 21.6966C27.2886 21.6396 27.332 21.58 27.3713 21.5178C27.3881 21.5132 27.4044 21.5092 27.4208 21.5046C27.4605 21.4934 27.4993 21.4801 27.5376 21.4643H27.613C27.6799 21.4643 27.7457 21.4582 27.8115 21.4455C27.915 21.6003 28.0425 21.7399 28.1899 21.8591C28.5128 22.1195 28.8316 22.2458 29.1647 22.2458C29.7915 22.2458 30.4261 21.7802 30.4261 20.8902C30.4261 20.8683 30.424 20.8499 30.424 20.8285C30.6296 20.7333 30.855 20.6039 31.1121 20.4337C31.1407 20.4149 31.1687 20.3945 31.1953 20.3726C31.2947 20.3181 31.3763 20.2692 31.4457 20.2223C31.4727 20.2045 31.4982 20.1851 31.5232 20.1647L32.1067 19.6894C32.1649 19.7939 32.2383 19.8907 32.3266 19.9778C32.4862 20.1352 32.6913 20.2381 32.9121 20.2717C33.1315 20.37 33.3681 20.42 33.6155 20.42C33.8629 20.42 34.0669 20.3354 34.2011 20.2666C34.221 20.2595 34.245 20.2529 34.2694 20.2457C34.549 20.1688 34.7821 20.0425 34.9636 19.8708C35.0243 19.8372 35.081 19.7974 35.134 19.7526C35.3355 19.669 35.5115 19.534 35.6492 19.3568C35.666 19.3461 35.6823 19.3354 35.6981 19.3236C35.741 19.4734 35.8042 19.6043 35.8624 19.7113C35.8955 19.773 35.9215 19.8316 35.9399 19.884C36.0664 20.2457 36.3347 20.5376 36.7601 20.7771C37.1426 20.9926 37.286 21.0736 37.5731 21.0736C37.5971 21.0736 37.6216 21.0726 37.6456 21.071L37.8618 21.0568C37.9246 21.068 37.9889 21.0741 38.0526 21.0741C38.2271 21.0741 38.401 21.0313 38.5591 20.9457L38.6127 20.9167L38.6907 20.9004C38.8315 20.8713 38.9651 20.8138 39.0829 20.7317C39.1844 20.6609 39.2533 20.6161 39.2972 20.5886C39.5849 20.5147 39.8266 20.3395 39.9832 20.1C39.9858 20.098 39.9878 20.0965 39.9904 20.0949C40.0016 20.0904 40.0123 20.0858 40.0235 20.0812C40.1587 20.3848 40.3908 20.5804 40.5591 20.7037C40.857 20.9228 41.2222 21.0344 41.645 21.0344C42.1224 21.0344 42.5494 20.8932 42.8921 20.6248C42.987 20.5789 43.0742 20.5188 43.1512 20.4475C43.441 20.3227 43.6164 20.0842 43.719 19.9024C43.8495 19.8122 43.9607 19.6981 44.0474 19.5646C44.0995 19.5172 44.1484 19.4643 44.1933 19.4057C44.1994 19.4016 44.2056 19.3975 44.2117 19.3939C44.3203 19.5325 44.4565 19.6645 44.6192 19.7898C45.0002 20.0822 45.4476 20.2371 45.9138 20.2371C45.9816 20.2371 46.0489 20.2305 46.1153 20.2177L46.2815 20.1856C46.5386 20.1703 46.7656 20.1046 46.9599 19.9895C47.1441 19.9574 47.3491 19.8728 47.5378 19.6843C47.6837 19.6237 47.8153 19.5305 47.9209 19.4113C47.9515 19.395 47.9816 19.3771 48.0112 19.3578C48.1642 19.2564 48.2938 19.1224 48.4182 18.9365C48.4356 18.91 48.4524 18.883 48.4672 18.8555C48.4881 18.8361 48.5085 18.8157 48.5289 18.7948C48.7467 18.6807 48.9257 18.5141 49.0507 18.3068C49.4118 18.0521 49.6281 17.6359 49.6281 17.1504C49.6281 17.0536 49.6158 16.967 49.5939 16.8763C49.6062 16.8116 49.6123 16.7459 49.6123 16.6801C49.6123 16.1274 49.1925 15.54 48.4151 15.54C48.1846 15.54 47.9632 15.6057 47.7546 15.7362C47.773 15.7081 47.7903 15.6791 47.8066 15.649C47.9989 15.4962 48.1443 15.2822 48.2218 15.026C48.3264 14.9098 48.4121 14.7718 48.4733 14.6174C48.5845 14.4824 48.6758 14.3235 48.7503 14.136C48.8737 13.9954 48.9619 13.8283 49.0073 13.6459C49.0548 13.5746 49.0976 13.5007 49.1379 13.4263C49.2445 13.3245 49.3297 13.2007 49.3863 13.0616L49.8336 11.9688C49.8546 11.9179 49.8709 11.8659 49.8836 11.8129C49.8892 11.8002 49.8964 11.7864 49.904 11.7707C50.0106 11.5577 50.0739 11.3539 50.0953 11.1522C50.1657 10.9525 50.208 10.7823 50.208 10.6025C50.208 10.3152 50.1193 9.88623 49.697 9.47307L49.6939 9.47358Z" fill="#20003D"/>
<path d="M28.9097 20.0302C28.7097 19.9293 28.5108 19.8784 28.3134 19.8784L28.065 19.8947C27.8676 19.8947 27.737 19.9054 27.6728 19.9263L27.3769 19.9981C27.2912 20.0088 27.2152 20.0327 27.1489 20.0699C27.0826 20.1071 27.0433 20.1255 27.0331 20.1255C27.0229 20.1255 27.0066 20.1204 26.9852 20.1097C26.9638 20.099 26.9423 20.0939 26.9214 20.0939C26.9005 20.0939 26.8776 20.0995 26.8536 20.1097C26.8296 20.1204 26.8123 20.1255 26.8016 20.1255C26.7801 20.1255 26.7694 20.1148 26.7694 20.0939L26.9531 19.639C27.0061 19.4953 27.0515 19.3598 27.0887 19.2324C27.126 19.1051 27.1698 19.02 27.2203 18.9772C27.2708 18.9349 27.2963 18.8763 27.2963 18.8019L27.3922 18.6583C27.4029 18.5044 27.4478 18.3842 27.5279 18.2991C27.5493 18.1876 27.56 18.1264 27.56 18.1157V18.0841L27.5442 18.0205V17.9328C27.661 17.8585 27.7197 17.8055 27.7197 17.7734L27.7039 17.59C27.7467 17.5105 27.784 17.3638 27.8156 17.1513C27.9487 16.9812 28.0155 16.7738 28.0155 16.5293L28.0313 16.1462C28.0313 16.0453 27.9676 15.9429 27.8396 15.8395C27.712 15.7356 27.5784 15.6842 27.4402 15.6842C27.2805 15.6842 27.1484 15.7254 27.0449 15.8074C26.9408 15.89 26.8475 15.9496 26.7654 15.9868C26.6827 16.0245 26.6256 16.0535 26.5935 16.0744C26.5241 16.1381 26.3828 16.241 26.1701 16.3811C25.9569 16.5222 25.7279 16.6643 25.4825 16.808C25.2377 17.0469 25.0459 17.1671 24.9072 17.1671C24.8429 17.2308 24.7858 17.2777 24.7353 17.3067C24.6848 17.3363 24.6435 17.375 24.6113 17.4224C24.5792 17.4703 24.5088 17.5197 24.3997 17.5696C24.2905 17.62 24.1987 17.6618 24.1237 17.6934L23.9717 17.7729C23.8921 17.7994 23.833 17.8523 23.7957 17.9323L23.5958 18.0199C23.5427 18.0515 23.4892 18.0785 23.4356 18.0994L23.3637 18.1315C23.225 18.2273 23.1107 18.2752 23.0199 18.2752C22.9562 18.2752 22.924 18.2487 22.924 18.1952C22.924 18.0892 22.9653 17.968 23.048 17.8325C23.1301 17.6964 23.1852 17.5905 23.2117 17.513C23.2382 17.4361 23.3127 17.3164 23.4351 17.1544C23.5575 16.9924 23.6279 16.862 23.6468 16.7637C23.6652 16.6653 23.7136 16.5563 23.7906 16.4366C23.8677 16.3169 23.9064 16.1483 23.9064 15.9302C23.9064 15.7122 23.8212 15.6031 23.6509 15.6031C23.4275 15.6031 23.2515 15.6617 23.124 15.7784L22.6935 16.1533C22.6088 16.1961 22.5119 16.269 22.4033 16.3729C22.2946 16.4768 22.2028 16.5573 22.1288 16.6159L22.0809 16.7275C21.9957 16.7433 21.8315 16.8737 21.5877 17.1182L21.4923 17.214C21.3387 17.3098 21.2617 17.3867 21.2617 17.4453C21.2617 17.5304 21.2893 17.5905 21.3449 17.6246C21.4005 17.6593 21.4413 17.7031 21.4673 17.7561C21.4938 17.809 21.5122 17.8411 21.5229 17.8518C21.5652 17.8625 21.6019 17.8783 21.6336 17.8997C21.6545 17.8997 21.6795 17.8839 21.7085 17.8518C21.7376 17.8202 21.7835 17.78 21.8468 17.7321C21.91 17.6842 21.9656 17.6032 22.013 17.4886C22.0605 17.3745 22.1191 17.3169 22.188 17.3169C22.2201 17.3169 22.2359 17.3276 22.2359 17.349V17.3806C22.1028 17.6414 22.036 17.8646 22.036 18.0505V18.1142C22.0467 18.1463 22.0518 18.1677 22.0518 18.1779C22.0518 18.2044 22.0304 18.2497 21.9881 18.3139C21.9452 18.3776 21.9243 18.4148 21.9243 18.4255L21.9722 18.7846C21.9722 18.8697 22.0493 18.969 22.2043 19.0837C22.3589 19.1978 22.4736 19.2553 22.5486 19.2553L22.8128 19.1917L22.9087 19.2075H22.9567C23.0097 19.2075 23.0623 19.1728 23.1128 19.1035C23.1633 19.0348 23.2153 18.9996 23.2688 18.9996L23.4851 19.0154C23.581 18.9038 23.6851 18.8427 23.7973 18.832C23.8187 18.8004 23.8559 18.7734 23.909 18.7525L24.3808 18.4255C24.5353 18.399 24.6343 18.3618 24.6766 18.3139C24.7567 18.3032 24.8205 18.2487 24.8689 18.1504C24.9169 18.052 24.9674 18.0031 25.0209 18.0031C25.0316 18.0031 25.0638 18.0087 25.1168 18.0189L25.3647 17.8992C25.4076 17.7713 25.4392 17.7077 25.4606 17.7077C25.4871 17.7077 25.5004 17.7133 25.5004 17.7234L25.6121 17.8034H25.6284L25.8284 17.6756C25.8712 17.6649 25.9186 17.6144 25.9722 17.5237L26.0681 17.508C26.0788 17.508 26.112 17.4815 26.1681 17.4285C26.2242 17.3755 26.268 17.349 26.2997 17.349H26.3318L26.4598 17.3806C26.4971 17.3806 26.5527 17.35 26.6276 17.2889C26.7021 17.2278 26.75 17.1972 26.7715 17.1972C26.7929 17.1972 26.8036 17.2079 26.8036 17.2293C26.8036 17.2772 26.7715 17.3862 26.7077 17.5564L26.644 17.644C26.6225 17.7555 26.6067 17.8248 26.596 17.8513L26.2364 18.8646C26.1992 18.886 26.1696 18.9074 26.1487 18.9283C26.1114 19.0984 26.0793 19.1968 26.0528 19.2232L26.037 19.2553V19.3593L26.0048 19.4229L26.0207 19.5187V19.6145C26.0207 19.641 25.9992 19.6649 25.9569 19.6863C25.914 19.7077 25.8692 19.7806 25.8212 19.9054C25.7733 20.0307 25.7416 20.1036 25.7253 20.125L25.7575 20.3007L25.7416 20.3405L25.5978 20.3007V20.3165C25.5233 20.5025 25.4723 20.6064 25.4458 20.6278L25.254 20.7791C25.2326 20.8005 25.201 20.8112 25.1581 20.8112C24.9663 20.8112 24.873 20.8937 24.8781 21.0583C24.8567 21.0791 24.8128 21.0954 24.746 21.1061C24.6792 21.1168 24.6139 21.1912 24.5501 21.3298L24.518 21.3456H24.47L24.4139 21.3695C24.3497 21.4546 24.2885 21.5132 24.2298 21.5448C24.1711 21.5764 24.1288 21.6034 24.1018 21.6242L23.8299 21.8876C23.8192 21.9406 23.7779 21.9819 23.706 22.0114C23.634 22.0405 23.5871 22.0654 23.5662 22.0873L23.5504 22.1352C23.4968 22.1989 23.4504 22.2697 23.4106 22.3466C23.3709 22.4236 23.304 22.4944 23.2107 22.5581C23.1173 22.6217 23.0709 22.7043 23.0709 22.8051C23.0388 22.8418 23.0148 22.8754 22.999 22.9045C22.9832 22.9335 22.9536 22.9483 22.9113 22.9483H22.8633C22.8419 22.9692 22.8317 23.0145 22.8317 23.0838L22.0962 24.1602C22.0533 24.2188 21.9921 24.3436 21.9126 24.5352C21.833 24.7267 21.7738 24.8317 21.7371 24.85C21.7004 24.8684 21.6545 24.9667 21.6014 25.1455C21.5484 25.3233 21.5213 25.4181 21.5213 25.4288V25.5801L21.5055 25.6437C21.4525 25.7074 21.426 25.7528 21.426 25.7793C21.426 26.0187 21.4433 26.2036 21.478 26.3335C21.5127 26.4634 21.6509 26.6035 21.8932 26.7523C22.1355 26.901 22.2992 26.9887 22.3844 27.0157L22.696 26.9841L22.8001 26.9204C22.8429 26.899 22.9133 26.8363 23.0118 26.7329C23.1102 26.629 23.1811 26.5669 23.2234 26.5455C23.2663 26.5241 23.2979 26.4843 23.3193 26.4257L23.2872 26.2821H23.3989C23.4361 26.2821 23.4841 26.2607 23.5427 26.2184C23.6014 26.1761 23.6305 26.144 23.6305 26.1226L23.5907 25.9627C23.5907 25.9041 23.6601 25.875 23.7988 25.875C23.884 25.7843 23.9263 25.7074 23.9263 25.6437C23.9263 25.633 23.9105 25.5959 23.8784 25.5322C23.9156 25.5322 23.9926 25.4578 24.1099 25.309C24.2273 25.1603 24.2976 25.0604 24.3216 25.01C24.3456 24.9596 24.3869 24.9107 24.4456 24.8628L24.5012 24.7115C24.5012 24.6687 24.5277 24.6101 24.5812 24.5357L24.9087 24.0971C24.9618 24.0171 24.9995 23.9346 25.0204 23.85C25.1 23.7756 25.1403 23.7196 25.1403 23.6824C25.1403 23.661 25.1321 23.6503 25.1163 23.6503L25.0684 23.5545V23.5066C25.1801 23.443 25.2561 23.3696 25.2964 23.2876C25.3361 23.205 25.3856 23.1307 25.4443 23.0639C25.5029 22.9972 25.532 22.9534 25.532 22.9325L25.4999 22.773C25.5851 22.6936 25.6279 22.6319 25.6279 22.5896V22.5102C25.8039 22.3772 25.8916 22.2361 25.8916 22.0873V22.0155C25.8809 21.9839 25.8758 21.9625 25.8758 21.9518C25.8758 21.9304 25.8865 21.9039 25.9079 21.8723L25.9717 21.7608C26.0354 21.6329 26.0956 21.5387 26.1517 21.4775C26.2073 21.4164 26.2385 21.3604 26.2436 21.3099C26.2487 21.2595 26.2782 21.1917 26.3318 21.1067C26.4756 20.99 26.5476 20.8489 26.5476 20.6838C26.5476 20.6573 26.5822 20.6283 26.6516 20.5962C26.721 20.5646 26.7995 20.5432 26.8873 20.5325C26.975 20.5218 27.0566 20.506 27.1311 20.4846L27.2831 20.4052H27.6105L27.8503 20.3415H27.8742C27.9487 20.3731 27.9967 20.3894 28.0181 20.3894H28.0502L28.1619 20.3578L28.3619 20.4215C28.4685 20.4215 28.546 20.4984 28.5934 20.6527C28.6414 20.8066 28.7281 20.9345 28.8536 21.0353C28.979 21.1362 29.0816 21.1871 29.1617 21.1871C29.2948 21.1871 29.3616 21.0883 29.3616 20.8917C29.3616 20.6415 29.3361 20.4612 29.2856 20.3491C29.2351 20.2375 29.1096 20.1311 28.9092 20.0302H28.9097ZM25.0225 21.6971C24.847 21.9151 24.7587 22.0613 24.7587 22.1357C24.7373 22.1994 24.7082 22.2646 24.671 22.3314C24.6338 22.3981 24.5991 22.4684 24.5675 22.5428L24.2563 23.0695L24.1446 23.1735C24.1339 23.1893 24.1288 23.256 24.1288 23.3727C24.038 23.4414 23.9666 23.5907 23.9131 23.8194C23.8493 23.8566 23.8121 23.8938 23.8013 23.931L23.7616 24.0426C23.7509 24.0854 23.6458 24.2632 23.4463 24.577C23.2469 24.8908 23.1469 25.0742 23.1469 25.1272C23.1469 25.1802 23.1107 25.2229 23.0388 25.255C22.9669 25.2871 22.9154 25.359 22.8832 25.4705C22.8302 25.4812 22.7929 25.5021 22.7715 25.5342L22.6435 25.7813C22.5848 25.9036 22.4706 26.0049 22.3002 26.0844L22.0605 26.2041C22.0391 26.2041 22.0284 26.1934 22.0284 26.172C22.0284 26.0712 22.063 25.9168 22.1324 25.7095L22.1003 25.6774C22.0523 25.6458 22.0284 25.6137 22.0284 25.5816C22.0284 25.5602 22.0391 25.5444 22.0605 25.5337C22.1401 25.5021 22.1962 25.3875 22.2283 25.1908C22.2492 25.1695 22.2737 25.1175 22.3002 25.0355C22.3267 24.9529 22.3614 24.8694 22.4043 24.7843C22.5848 24.5928 22.6838 24.3406 22.6996 24.0268L22.8511 23.9473C22.9363 23.7614 22.9949 23.663 23.0266 23.6518C23.0587 23.6411 23.0893 23.609 23.1184 23.5561C23.1474 23.5026 23.1837 23.4537 23.226 23.4088C23.2688 23.3635 23.2897 23.3304 23.2897 23.309L23.2418 23.1174C23.2418 23.0858 23.2576 23.0619 23.2897 23.0456C23.3377 23.0721 23.3642 23.0853 23.3693 23.0853H23.4015C23.4494 23.0853 23.5065 23.0201 23.5728 22.8897C23.6397 22.7593 23.6953 22.6824 23.7406 22.6584C23.786 22.6345 23.8513 22.5774 23.9365 22.4867L24.088 22.3273C24.2048 22.1785 24.2767 22.0934 24.3033 22.072L24.8138 21.6416C24.8883 21.6044 24.9419 21.5672 24.9735 21.53C25.0056 21.53 25.0214 21.5672 25.0214 21.6416V21.6976L25.0225 21.6971Z" fill="#9D4EDD"/>
<path d="M48.9513 10.2317C48.8233 10.1069 48.7008 10.0442 48.584 10.0442C48.4295 10.0442 48.3101 10.1053 48.2244 10.2276L48.0408 10.4191C47.9771 10.467 47.8715 10.5985 47.7256 10.814C47.5792 11.0295 47.4751 11.1889 47.4139 11.2928C47.3527 11.3968 47.2517 11.5282 47.1104 11.6876C46.9692 11.8471 46.8988 11.9587 46.8988 12.0229L46.9304 12.1344L46.9146 12.19C46.8508 12.2328 46.7881 12.2618 46.7269 12.2776C46.6657 12.2934 46.6136 12.3642 46.5713 12.489C46.5285 12.6138 46.4968 12.6872 46.4754 12.7086C46.454 12.73 46.4259 12.7712 46.3918 12.8324C46.3571 12.8935 46.3265 12.9455 46.3 12.9877C46.2734 13.0305 46.2571 13.0769 46.252 13.1273C46.2464 13.1778 46.2117 13.2246 46.1474 13.2669L46.051 13.4106C45.9868 13.6444 45.8766 13.8732 45.7215 14.0963C45.6302 14.2827 45.5741 14.4142 45.5527 14.4911C45.5313 14.568 45.5155 14.6118 45.5048 14.6225C45.4512 14.8727 45.3522 15.0902 45.2074 15.2767L45.1115 15.4045C45.0421 15.6012 44.986 15.6995 44.9437 15.6995C44.9223 15.6679 44.9008 15.6409 44.8794 15.62C44.858 15.5986 44.8315 15.5273 44.7993 15.405C44.7672 15.2828 44.6937 15.1789 44.5795 15.0938C44.4652 15.0087 44.3515 14.9659 44.2398 14.9659C44.1862 14.9659 44.1174 15.0087 44.0322 15.0938C43.9414 15.051 43.8858 15.0301 43.8644 15.0301C43.8322 15.0301 43.8006 15.0408 43.7685 15.0617C43.7364 15.0831 43.7042 15.0938 43.6726 15.0938H43.5849C43.4732 15.1417 43.3982 15.1845 43.3609 15.2216C43.2487 15.2216 43.1156 15.2986 42.961 15.4529L42.9289 15.4692C42.8544 15.4799 42.7983 15.5008 42.7611 15.5329C42.7239 15.565 42.6519 15.618 42.5453 15.6929C42.4387 15.7673 42.3479 15.863 42.2735 15.9802C42.0496 16.1397 41.8761 16.3175 41.7537 16.5146L41.69 16.5304L41.642 16.6343C41.5726 16.7087 41.4676 16.8773 41.3263 17.1407C41.185 17.4041 41.109 17.5595 41.0988 17.6074C41.0886 17.6537 41.0325 17.7424 40.9361 17.8697C40.9524 17.8274 40.9723 17.7892 41.0009 17.7592C41.0406 17.7164 41.0605 17.6848 41.0605 17.6634C41.0605 17.6313 41.0554 17.6074 41.0447 17.5916L41.0289 17.4637V17.4158C41.082 17.3623 41.109 17.3068 41.109 17.2482C41.109 17.1417 41.0529 17.0888 40.9412 17.0888C40.8295 17.0888 40.7402 17.1591 40.6576 17.3002C40.575 17.4413 40.5285 17.5116 40.5178 17.5116C40.4699 17.5223 40.3821 17.5783 40.2546 17.6792C40.0577 17.8758 39.9139 18.0037 39.8236 18.0618C39.7328 18.1204 39.6517 18.183 39.5798 18.2493C39.5079 18.316 39.4309 18.3649 39.3482 18.397C39.2656 18.4286 39.182 18.4805 39.0968 18.5524C39.0116 18.6242 38.9223 18.6757 38.829 18.7078C38.7356 18.7393 38.6561 18.7765 38.5898 18.8193C38.5229 18.8621 38.4459 18.8937 38.3582 18.9151C38.2705 18.9365 38.2052 18.9645 38.1623 18.9992C38.1195 19.0338 38.093 19.0511 38.0828 19.0511L37.9711 19.019C37.9017 19.0511 37.8619 19.0669 37.8512 19.0669C37.6436 19.0669 37.5395 19.0272 37.5395 18.9472C37.5395 18.9151 37.5594 18.8728 37.5992 18.8193C37.639 18.7663 37.6696 18.7062 37.691 18.64C37.7124 18.5738 37.7339 18.5295 37.7548 18.5086L37.8185 18.4128C37.8609 18.3221 37.8945 18.261 37.9185 18.2294C37.9425 18.1973 37.9547 18.1764 37.9547 18.1657V18.0221C37.9547 17.9793 38.0078 17.9395 38.1144 17.9023C38.1837 17.8066 38.2393 17.7108 38.2822 17.615L38.3618 17.5595C38.6438 17.1978 38.8224 16.9986 38.8968 16.9614C38.9871 16.8177 39.0325 16.6741 39.0325 16.5309C39.0325 16.4779 38.9937 16.3368 38.9167 16.1081C38.8397 15.8798 38.7795 15.728 38.7372 15.6537L38.6892 15.5339C38.6678 15.1463 38.4974 14.9516 38.1781 14.9516C37.9068 14.9516 37.6722 15.05 37.4753 15.2466C37.4324 15.3001 37.3926 15.3373 37.3554 15.3582C37.3182 15.3796 37.2942 15.401 37.2835 15.4219C37.1718 15.5599 36.9851 15.7061 36.7244 15.8605L36.6765 15.9644L36.5566 15.9965L36.4607 16.1081C36.3332 16.1509 36.2144 16.2319 36.1052 16.3516C35.9961 16.4713 35.9002 16.5487 35.8175 16.5829C35.7349 16.6175 35.6829 16.6613 35.662 16.7143C35.6406 16.7673 35.5875 16.7994 35.5023 16.8101C35.4171 16.8208 35.2825 16.9033 35.0989 17.0572C34.9193 17.208 34.829 17.4107 34.825 17.6629C34.8005 17.6833 34.7688 17.6955 34.726 17.6955L34.5985 17.8071C34.5347 17.86 34.4791 17.9268 34.4312 18.0063L34.3516 18.0378C34.32 18.0485 34.2654 18.1031 34.1884 18.2014C34.1114 18.2997 33.9879 18.37 33.8181 18.4128C33.7808 18.3807 33.7625 18.3145 33.7625 18.2136L33.7946 17.9905L33.7788 17.7908C33.7788 17.748 33.8012 17.6991 33.8466 17.6435C33.892 17.588 33.9145 17.5437 33.9145 17.5121V17.4963L34.0262 17.1692C34.0369 17.1163 34.0527 17.0684 34.0741 17.0256C34.3827 16.7174 34.5373 16.3903 34.5373 16.0444C34.5373 15.752 34.4225 15.6058 34.194 15.6058C33.8747 15.6058 33.6656 15.7031 33.5666 15.8967C33.4682 16.0908 33.3922 16.1876 33.3386 16.1876C33.2958 16.1876 33.2692 16.1397 33.2585 16.0439C33.2264 15.5869 33.0453 15.3582 32.7148 15.3582C32.6827 15.3582 32.6561 15.3638 32.6352 15.374L32.5072 15.4377H32.4914C32.4113 15.3949 32.3608 15.374 32.3394 15.374H32.2914C32.0303 15.5069 31.889 15.5732 31.8676 15.5732H31.8038C31.7345 15.5732 31.6396 15.6078 31.5197 15.6771C31.3998 15.7464 31.2774 15.8034 31.152 15.8488C31.0265 15.8936 30.9148 15.9644 30.8158 16.0602C30.7174 16.156 30.6521 16.2089 30.62 16.2196C30.4011 16.3312 30.1991 16.48 30.0125 16.6664L29.7727 16.9054C29.6396 16.996 29.5488 17.0781 29.5009 17.1524C29.4529 17.2268 29.3886 17.3002 29.3091 17.372C29.229 17.4438 29.1918 17.5116 29.1974 17.5753L29.1178 17.6792C29.0857 17.7006 29.0234 17.7841 28.9301 17.9304C28.8368 18.0766 28.7903 18.1606 28.7903 18.1815L28.8062 18.397C28.7052 18.397 28.6547 18.4286 28.6547 18.4928L28.6705 18.7562V18.804C28.6598 18.8254 28.6547 18.8677 28.6547 18.9319C28.6547 19.0649 28.6786 19.1683 28.7266 19.2427L28.8062 19.5697C28.822 19.6813 28.926 19.7771 29.1178 19.8571C29.3096 19.9365 29.4774 19.9768 29.6212 19.9768C29.7967 19.9768 30.0976 19.8357 30.5235 19.5539L30.5715 19.5061C30.6939 19.4424 30.7873 19.3894 30.851 19.3461L31.458 18.8519C31.5325 18.7984 31.5937 18.7307 31.6416 18.6487C31.6896 18.5661 31.7186 18.5198 31.7294 18.5091L31.8808 18.5249L31.9604 18.4454C31.9869 18.4082 32.0349 18.3776 32.1043 18.3537C32.1736 18.3303 32.2134 18.2997 32.2241 18.262L32.2557 18.2141C32.3195 18.1713 32.3725 18.1234 32.4154 18.0704C32.4419 17.9696 32.4766 17.9028 32.5194 17.8707C32.5939 17.8707 32.6592 17.8443 32.7153 17.7913C32.7709 17.7383 32.8097 17.7118 32.8311 17.7118C32.8525 17.7118 32.8632 17.7276 32.8632 17.7597L32.8153 18.1504C32.8153 18.1718 32.8204 18.1983 32.8311 18.2299C32.8418 18.2615 32.8469 18.291 32.8469 18.3175C32.8469 18.3389 32.8413 18.3547 32.8311 18.3654C32.8204 18.3761 32.8153 18.3919 32.8153 18.4133C32.8153 18.4347 32.8285 18.4612 32.8551 18.4928C32.8816 18.5244 32.8949 18.5514 32.8949 18.5723L32.8627 18.7241C32.8627 18.8305 32.8867 18.9141 32.9346 18.9752C32.9826 19.0364 33.0091 19.0858 33.0147 19.1224C33.0198 19.1601 33.0387 19.1943 33.0703 19.2264C33.1606 19.2371 33.2483 19.2625 33.334 19.3023C33.4192 19.342 33.512 19.3624 33.6135 19.3624C33.635 19.3624 33.6732 19.3476 33.7293 19.3186C33.7854 19.2895 33.8706 19.259 33.9849 19.2269C34.0991 19.1953 34.1833 19.1525 34.2363 19.099L34.2521 19.0195C34.3266 18.9987 34.3909 18.9747 34.4439 18.9477C34.5291 18.8519 34.6077 18.799 34.6796 18.7883C34.7515 18.7776 34.8071 18.7297 34.8474 18.6446C34.8877 18.5595 34.9657 18.4984 35.083 18.4612L35.1626 18.3496C35.2636 18.2808 35.3263 18.2218 35.3503 18.1744C35.3743 18.1265 35.4263 18.0811 35.5059 18.0384L35.5615 17.9344L35.5931 17.7113C35.6309 17.6451 35.6599 17.5793 35.6844 17.5146C35.6865 17.5146 35.6921 17.5121 35.6941 17.5121C35.7579 17.427 35.8221 17.3526 35.8859 17.289C35.9655 17.289 36.0272 17.2594 36.0695 17.2013C36.1124 17.1428 36.1389 17.1112 36.1496 17.1056C36.3149 17.0628 36.4133 17.0363 36.4449 17.0261C36.4771 17.0154 36.5143 16.9594 36.5566 16.8585L36.6923 16.7948C36.7561 16.7097 36.8321 16.6476 36.9198 16.6073C37.0075 16.5676 37.0647 16.534 37.0917 16.5075C37.1182 16.481 37.1886 16.4407 37.3034 16.3878C37.4176 16.3348 37.4911 16.2803 37.5232 16.2242C37.5553 16.1687 37.5844 16.1407 37.6109 16.1407C37.7497 16.1407 37.8185 16.2176 37.8185 16.372C37.8185 16.3934 37.7971 16.4407 37.7548 16.5156C37.7232 16.5263 37.6961 16.5676 37.6752 16.6389C37.6538 16.7107 37.638 16.752 37.6273 16.7622L37.5232 16.9059C37.4911 17.0072 37.4462 17.0923 37.3875 17.1611C37.3289 17.2304 37.2223 17.4194 37.0682 17.7271C37.0361 17.8657 36.9948 17.9655 36.9443 18.0261C36.8938 18.0873 36.8632 18.1443 36.8525 18.1978C36.8418 18.2513 36.8152 18.3323 36.7729 18.4413C36.7301 18.5503 36.7091 18.7322 36.7091 18.988C36.7091 19.0307 36.7382 19.1061 36.7969 19.2152C36.8555 19.3242 36.9035 19.4317 36.9407 19.5381C36.9779 19.6446 37.0912 19.7511 37.2799 19.8576C37.4686 19.964 37.5661 20.017 37.5712 20.017L37.8027 20.0012L37.9302 19.961C37.9461 19.961 37.9864 19.9798 38.0501 20.017L38.2414 19.9131L38.473 19.8652C38.755 19.6686 38.9254 19.5702 38.984 19.5702C39.0692 19.5702 39.1121 19.5331 39.1121 19.4587V19.4429L39.0641 19.3634C39.0641 19.3155 39.0963 19.2916 39.16 19.2916H39.1922L39.2401 19.3074C39.2508 19.3074 39.2906 19.2865 39.36 19.2437L39.3916 19.1642C39.4023 19.0898 39.4232 19.0527 39.4554 19.0527C39.4661 19.0527 39.4875 19.0634 39.5191 19.0842C39.5512 19.1056 39.5722 19.1163 39.5829 19.1163C39.6038 19.1163 39.6456 19.0832 39.7068 19.0165C39.768 18.9497 39.8813 18.856 40.046 18.7332C40.2108 18.611 40.3388 18.505 40.4296 18.4143C40.5199 18.3236 40.5903 18.2707 40.6413 18.2549C40.6918 18.2386 40.7331 18.1723 40.7652 18.0552C40.7999 18.0465 40.8249 18.0317 40.8478 18.0154C40.7973 18.1204 40.7708 18.2365 40.7708 18.3659L40.8188 18.5096C40.7973 18.531 40.7708 18.5417 40.7392 18.5417C40.7071 18.6105 40.6912 18.6614 40.6912 18.693L40.755 19.0995C40.7708 19.2274 40.8086 19.3349 40.8667 19.4225C40.9254 19.5101 40.9651 19.5835 40.9866 19.6421C41.0075 19.7007 41.0743 19.771 41.1865 19.8535C41.2982 19.936 41.4502 19.9773 41.6425 19.9773C41.9144 19.9773 42.1327 19.8978 42.298 19.7379C42.3352 19.7114 42.378 19.69 42.426 19.6742C42.4739 19.5891 42.5112 19.528 42.5382 19.4908L42.6744 19.4592C42.6953 19.4699 42.7116 19.475 42.7223 19.475C42.7438 19.475 42.7835 19.4113 42.8422 19.2839C42.9009 19.1561 42.9677 19.0832 43.0421 19.0644C43.1166 19.046 43.1635 19.0007 43.1819 18.9283C43.2003 18.8565 43.2207 18.8209 43.2421 18.8209C43.3217 18.8209 43.3752 18.7587 43.4023 18.6334C43.4288 18.5086 43.4635 18.4459 43.5063 18.4459H43.5221L43.618 18.5096C43.6552 18.5096 43.7114 18.4113 43.7858 18.2146C43.9669 18.071 44.0776 17.9594 44.1179 17.8794C44.1577 17.7999 44.1883 17.7546 44.2097 17.7439L44.2576 17.7118C44.2949 17.6746 44.3296 17.6481 44.3617 17.6323C44.4362 17.6323 44.4897 17.5498 44.5219 17.3853L44.5856 17.3537L44.6014 17.2497C44.6759 17.2497 44.7427 17.4199 44.8014 17.7602L44.8172 18.0873C44.8917 18.2625 44.9355 18.4133 44.9488 18.5376C44.962 18.6624 45.0671 18.801 45.2645 18.9523C45.4619 19.1041 45.6777 19.18 45.9118 19.18L46.1597 19.1321C46.2984 19.1321 46.3964 19.1056 46.4555 19.0527C46.5142 18.9997 46.5565 18.965 46.5835 18.9487H46.7672C46.7881 18.9487 46.8228 18.9034 46.8707 18.8127C46.9187 18.7225 46.9799 18.6772 47.0543 18.6772C47.0758 18.6772 47.0997 18.6879 47.1263 18.7093C47.2007 18.5977 47.2487 18.5096 47.2701 18.4459L47.4221 18.478C47.4542 18.4566 47.4915 18.4143 47.5338 18.3501V18.2783C47.5338 18.2355 47.571 18.1942 47.6455 18.1545C47.72 18.1148 47.8026 18.0312 47.8934 17.9034C48.0265 17.882 48.1132 17.8264 48.153 17.7357C48.1928 17.6456 48.2474 17.5656 48.3168 17.4968C48.482 17.454 48.5641 17.3399 48.5641 17.1535C48.5641 17.1326 48.5376 17.0495 48.4846 16.9064L48.5483 16.6832C48.5483 16.6303 48.5029 16.6038 48.4127 16.6038C48.3703 16.6038 48.3173 16.6303 48.2535 16.6832L48.1898 16.7469C48.0888 16.779 47.9903 16.8748 47.8949 17.0342C47.799 17.1937 47.5894 17.3802 47.2655 17.5926C47.2497 17.6084 47.2283 17.6354 47.2018 17.6721C47.1752 17.7087 47.1339 17.7388 47.0783 17.7597C47.0227 17.7811 46.984 17.8025 46.9625 17.8234C46.883 17.9828 46.6759 18.1479 46.3413 18.318L46.2296 18.3659C46.1179 18.4617 46.0459 18.5096 46.0138 18.5096C45.95 18.5096 45.9179 18.4668 45.9179 18.3817L45.9337 18.1983L45.8378 17.8713L45.87 17.7597L45.8542 17.5442L45.95 16.994C46.0138 16.4835 46.0964 16.21 46.1974 16.1723L46.2612 15.9649C46.4581 15.7469 46.5565 15.6221 46.5565 15.5905L46.4928 15.3908C46.5035 15.3485 46.5356 15.3113 46.5886 15.2792C46.7748 15.2685 46.8789 15.1941 46.9003 15.0561C46.9212 14.918 46.9722 14.8487 47.0518 14.8487C47.137 14.8487 47.19 14.7958 47.2114 14.6893C47.2114 14.4926 47.2487 14.3887 47.3231 14.378C47.3976 14.3673 47.4522 14.3154 47.4869 14.2226C47.5216 14.1299 47.5761 14.0382 47.6506 13.9475C47.7251 13.8569 47.7863 13.7112 47.8342 13.5089L47.8664 13.4931C47.9408 13.4666 47.9781 13.4243 47.9781 13.3652V13.2058C48.0582 13.1793 48.1673 13.0142 48.3055 12.7111C48.3162 12.7004 48.3479 12.6846 48.4014 12.6632L48.8488 11.571C48.8595 11.5073 48.8942 11.4166 48.9528 11.3C49.0115 11.1833 49.0405 11.0819 49.0405 10.9968L49.0564 10.9011C49.115 10.7472 49.1441 10.6489 49.1441 10.6061C49.1441 10.4838 49.0803 10.36 48.9523 10.2352L48.9513 10.2317ZM32.7735 16.9517C32.5842 17.1433 32.4394 17.2762 32.3384 17.3506C32.3169 17.4143 32.2517 17.477 32.1425 17.5381C32.0334 17.5992 31.9681 17.6884 31.9466 17.8055C31.8671 17.8427 31.8135 17.8799 31.787 17.9171C31.7605 17.9543 31.6885 17.9996 31.5712 18.0526L31.4034 18.1805C31.2009 18.2921 31.0545 18.3746 30.9642 18.4276C30.927 18.4862 30.8735 18.533 30.8046 18.5672C30.7352 18.6018 30.6873 18.6339 30.6608 18.6629C30.6342 18.6925 30.6077 18.7098 30.5812 18.7149C30.5547 18.7205 30.5307 18.7337 30.5093 18.7546L30.3573 18.8341C30.2935 18.8555 30.2507 18.8769 30.2298 18.8978C30.2083 18.9192 30.1298 18.9579 29.9941 19.0134C29.8584 19.069 29.7692 19.097 29.7263 19.097C29.6248 19.097 29.5743 18.9671 29.5743 18.7062C29.5743 18.6634 29.6049 18.6064 29.6661 18.5346C29.7273 18.4627 29.763 18.3832 29.7743 18.2956C29.785 18.208 29.8222 18.152 29.886 18.128C29.9497 18.1041 30.0028 18.074 30.0456 18.0363L30.1017 17.9008C30.1017 17.885 30.1711 17.8213 30.3093 17.7093C30.3466 17.5656 30.4292 17.4729 30.5567 17.4301C30.7694 17.2813 30.8949 17.1667 30.9321 17.0872C30.9959 17.0872 31.0969 17.0353 31.2356 16.9318C31.3743 16.8279 31.5299 16.7551 31.7028 16.7123C31.8757 16.6695 31.9931 16.6313 32.0543 16.5966C32.1155 16.562 32.1889 16.5447 32.2741 16.5447L32.4338 16.5763L32.5378 16.5605L32.6495 16.616L32.8015 16.6002L32.9454 16.616L33.0091 16.5763H33.0249C33.0458 16.5763 33.0565 16.5844 33.0565 16.6002C33.0565 16.643 32.9622 16.7597 32.773 16.9512L32.7735 16.9517ZM44.503 16.5289C44.327 16.7734 44.2179 16.9115 44.1755 16.9436C44.149 17.0709 44.0903 17.1509 43.9995 17.1825L43.9439 17.2864L43.8481 17.3659L43.8322 17.4617C43.8322 17.4938 43.8134 17.5228 43.7761 17.5493C43.7389 17.5758 43.7124 17.6038 43.6961 17.6328C43.6802 17.6624 43.6522 17.6848 43.6124 17.7011C43.5721 17.7169 43.515 17.7663 43.4405 17.8483C43.366 17.9309 43.3059 17.9854 43.261 18.0119C43.2156 18.0384 43.1931 18.0623 43.1931 18.0837L43.1289 18.1474C43.1181 18.1474 43.086 18.1739 43.033 18.2268C43.0172 18.2325 42.9386 18.3053 42.7973 18.4464C42.656 18.5875 42.5453 18.6818 42.4658 18.7292C42.3862 18.777 42.3408 18.8066 42.3301 18.8168C42.1439 19.0027 41.973 19.096 41.8185 19.096C41.7226 19.096 41.6696 19.042 41.6588 18.9324C41.6481 18.8234 41.6323 18.7317 41.6109 18.6573C41.6588 18.5722 41.7002 18.4683 41.7348 18.3461C41.7695 18.2238 41.843 18.1097 41.9547 18.0032C41.9547 17.9181 42.0292 17.7933 42.1786 17.6283V17.5243C42.2107 17.4393 42.2668 17.374 42.3464 17.3287C42.426 17.2839 42.5117 17.2024 42.602 17.0857C42.6285 16.9527 42.679 16.886 42.754 16.886H42.8019L43.2094 16.5589C43.2839 16.4209 43.3375 16.3516 43.3691 16.3516L43.5527 16.3837C43.7552 16.2293 43.8858 16.1524 43.9445 16.1524L44.1439 16.184C44.2077 16.1524 44.2678 16.131 44.3239 16.1203C44.3795 16.1096 44.4346 16.0938 44.4877 16.0724C44.5407 16.051 44.5729 16.0403 44.5836 16.0403C44.6529 16.0403 44.7141 16.0668 44.7672 16.1203C44.7672 16.1468 44.6795 16.2823 44.5035 16.5268L44.503 16.5289ZM48.2958 11.9189C48.2479 11.9561 48.1908 12.0651 48.124 12.246C48.0571 12.4268 47.9867 12.5542 47.9123 12.6286C47.8378 12.703 47.7883 12.7631 47.7649 12.8079C47.7409 12.8533 47.6889 12.9287 47.6093 13.0351C47.5297 13.1416 47.4894 13.2134 47.4894 13.2506C47.3991 13.3357 47.3364 13.4223 47.3017 13.5099C47.267 13.5975 47.215 13.6414 47.1462 13.6414C47.0875 13.6943 46.9783 13.8355 46.8187 14.0642C46.7656 14.1972 46.7039 14.269 46.6351 14.2792L46.7146 14.0479L46.8187 13.8721C46.8187 13.8563 46.8585 13.8202 46.9386 13.7646C47.0186 13.7091 47.0584 13.6465 47.0584 13.5772V13.4254L47.1303 13.3617C47.1462 13.2715 47.1676 13.1941 47.1941 13.1304L47.3058 13.0188C47.3696 12.9337 47.4241 12.8818 47.4695 12.8634C47.5149 12.8451 47.5547 12.7824 47.5894 12.676C47.6241 12.5695 47.6945 12.4258 47.8011 12.2455L48.0724 11.7906C48.152 11.6948 48.204 11.6163 48.228 11.5552C48.252 11.4941 48.2882 11.4635 48.3361 11.4635C48.3571 11.4635 48.3683 11.5404 48.3683 11.6948C48.3683 11.8064 48.3443 11.8807 48.2964 11.9179L48.2958 11.9189Z" fill="#9D4EDD"/>
</svg>
